<?xml version="1.0" encoding="UTF-8"?>
<svg xmlns="http://www.w3.org/2000/svg" xmlns:xlink="http://www.w3.org/1999/xlink" width="720pt" height="591pt" viewBox="0 0 720 591" version="1.1">
<g id="surface1">
<path style=" stroke:none;fill-rule:nonzero;fill:rgb(100%,100%,100%);fill-opacity:1;" d="M 28.207031 575.472656 L 711.199219 575.472656 L 711.199219 7.710938 L 28.207031 7.710938 Z M 28.207031 575.472656 "/>
<path style="fill:none;stroke-width:0.3985;stroke-linecap:butt;stroke-linejoin:miter;stroke:rgb(85.098039%,85.098039%,85.098039%);stroke-opacity:1;stroke-dasharray:2.98883,2.98883;stroke-miterlimit:10;" d="M 33.663556 -13.449136 L 33.663556 147.945058 M 65.718 -13.449136 L 65.718 147.945058 M 97.775778 -13.449136 L 97.775778 147.945058 M 129.834667 -13.449136 L 129.834667 147.945058 M 161.893556 -13.449136 L 161.893556 147.945058 " transform="matrix(3.515625,0,0,-3.517857,85.120312,528.160518)"/>
<path style="fill:none;stroke-width:0.3985;stroke-linecap:butt;stroke-linejoin:miter;stroke:rgb(85.098039%,85.098039%,85.098039%);stroke-opacity:1;stroke-dasharray:2.98883,2.98883;stroke-miterlimit:10;" d="M -16.188667 27.96457 L 178.084667 27.96457 M -16.188667 54.59766 L 178.084667 54.59766 M -16.188667 81.23075 L 178.084667 81.23075 M -16.188667 107.86384 L 178.084667 107.86384 M -16.188667 134.49582 L 178.084667 134.49582 " transform="matrix(3.515625,0,0,-3.517857,85.120312,528.160518)"/>
<path style="fill:none;stroke-width:0.19925;stroke-linecap:butt;stroke-linejoin:miter;stroke:rgb(50.196078%,50.196078%,50.196078%);stroke-opacity:1;stroke-miterlimit:10;" d="M -14.426444 -1.503387 L -14.426444 1.33259 M 1.604667 -1.503387 L 1.604667 1.33259 M 17.631333 -1.503387 L 17.631333 1.33259 M -14.426444 -1.503387 L -14.426444 1.33259 M 1.604667 -1.503387 L 1.604667 1.33259 M 17.631333 -1.503387 L 17.631333 1.33259 M 33.663556 -1.503387 L 33.663556 1.33259 M 49.690222 -1.503387 L 49.690222 1.33259 M 17.631333 -1.503387 L 17.631333 1.33259 M 33.663556 -1.503387 L 33.663556 1.33259 M 49.690222 -1.503387 L 49.690222 1.33259 M 65.718 -1.503387 L 65.718 1.33259 M 81.749111 -1.503387 L 81.749111 1.33259 M 49.690222 -1.503387 L 49.690222 1.33259 M 65.718 -1.503387 L 65.718 1.33259 M 81.749111 -1.503387 L 81.749111 1.33259 M 97.775778 -1.503387 L 97.775778 1.33259 M 113.808 -1.503387 L 113.808 1.33259 M 81.749111 -1.503387 L 81.749111 1.33259 M 97.775778 -1.503387 L 97.775778 1.33259 M 113.808 -1.503387 L 113.808 1.33259 M 129.834667 -1.503387 L 129.834667 1.33259 M 145.865778 -1.503387 L 145.865778 1.33259 M 113.808 -1.503387 L 113.808 1.33259 M 129.834667 -1.503387 L 129.834667 1.33259 M 145.865778 -1.503387 L 145.865778 1.33259 M 161.893556 -1.503387 L 161.893556 1.33259 M 177.924667 -1.503387 L 177.924667 1.33259 M 145.865778 -1.503387 L 145.865778 1.33259 M 161.893556 -1.503387 L 161.893556 1.33259 M 177.924667 -1.503387 L 177.924667 1.33259 M 177.924667 -1.503387 L 177.924667 1.33259 " transform="matrix(3.515625,0,0,-3.517857,85.120312,528.160518)"/>
<path style="fill:none;stroke-width:0.19925;stroke-linecap:butt;stroke-linejoin:miter;stroke:rgb(50.196078%,50.196078%,50.196078%);stroke-opacity:1;stroke-miterlimit:10;" d="M 33.663556 -2.921376 L 33.663556 1.33259 M 65.718 -2.921376 L 65.718 1.33259 M 97.775778 -2.921376 L 97.775778 1.33259 M 129.834667 -2.921376 L 129.834667 1.33259 M 161.893556 -2.921376 L 161.893556 1.33259 " transform="matrix(3.515625,0,0,-3.517857,85.120312,528.160518)"/>
<path style="fill:none;stroke-width:0.19925;stroke-linecap:butt;stroke-linejoin:miter;stroke:rgb(50.196078%,50.196078%,50.196078%);stroke-opacity:1;stroke-miterlimit:10;" d="M -1.232 -11.98451 L 1.604667 -11.98451 M -1.232 1.33259 L 1.604667 1.33259 M -1.232 14.64858 L 1.604667 14.64858 M -1.232 -11.98451 L 1.604667 -11.98451 M -1.232 1.33259 L 1.604667 1.33259 M -1.232 14.64858 L 1.604667 14.64858 M -1.232 27.96457 L 1.604667 27.96457 M -1.232 41.28167 L 1.604667 41.28167 M -1.232 14.64858 L 1.604667 14.64858 M -1.232 27.96457 L 1.604667 27.96457 M -1.232 41.28167 L 1.604667 41.28167 M -1.232 54.59766 L 1.604667 54.59766 M -1.232 67.91476 L 1.604667 67.91476 M -1.232 41.28167 L 1.604667 41.28167 M -1.232 54.59766 L 1.604667 54.59766 M -1.232 67.91476 L 1.604667 67.91476 M -1.232 81.23075 L 1.604667 81.23075 M -1.232 94.54674 L 1.604667 94.54674 M -1.232 67.91476 L 1.604667 67.91476 M -1.232 81.23075 L 1.604667 81.23075 M -1.232 94.54674 L 1.604667 94.54674 M -1.232 107.86384 L 1.604667 107.86384 M -1.232 121.17983 L 1.604667 121.17983 M -1.232 94.54674 L 1.604667 94.54674 M -1.232 107.86384 L 1.604667 107.86384 M -1.232 121.17983 L 1.604667 121.17983 M -1.232 134.49582 L 1.604667 134.49582 M -1.232 147.81292 L 1.604667 147.81292 M -1.232 121.17983 L 1.604667 121.17983 M -1.232 134.49582 L 1.604667 134.49582 M -1.232 147.81292 L 1.604667 147.81292 M -1.232 147.81292 L 1.604667 147.81292 " transform="matrix(3.515625,0,0,-3.517857,85.120312,528.160518)"/>
<path style="fill:none;stroke-width:0.19925;stroke-linecap:butt;stroke-linejoin:miter;stroke:rgb(50.196078%,50.196078%,50.196078%);stroke-opacity:1;stroke-miterlimit:10;" d="M -2.649778 27.96457 L 1.604667 27.96457 M -2.649778 54.59766 L 1.604667 54.59766 M -2.649778 81.23075 L 1.604667 81.23075 M -2.649778 107.86384 L 1.604667 107.86384 M -2.649778 134.49582 L 1.604667 134.49582 " transform="matrix(3.515625,0,0,-3.517857,85.120312,528.160518)"/>
<path style="fill:none;stroke-width:0.3985;stroke-linecap:butt;stroke-linejoin:miter;stroke:rgb(0%,0%,0%);stroke-opacity:1;stroke-miterlimit:10;" d="M -16.188667 1.33259 L 176.092444 1.33259 " transform="matrix(3.515625,0,0,-3.517857,85.120312,528.160518)"/>
<path style=" stroke:none;fill-rule:nonzero;fill:rgb(0%,0%,0%);fill-opacity:1;" d="M 711.199219 523.472656 L 699.992188 517.867188 L 704.195312 523.472656 L 699.992188 529.082031 "/>
<path style="fill:none;stroke-width:0.3985;stroke-linecap:butt;stroke-linejoin:miter;stroke:rgb(0%,0%,0%);stroke-opacity:1;stroke-miterlimit:10;" d="M 1.604667 -13.449136 L 1.604667 145.95299 " transform="matrix(3.515625,0,0,-3.517857,85.120312,528.160518)"/>
<path style=" stroke:none;fill-rule:nonzero;fill:rgb(0%,0%,0%);fill-opacity:1;" d="M 90.761719 7.710938 L 85.15625 18.921875 L 90.761719 14.71875 L 96.363281 18.921875 "/>
<path style=" stroke:none;fill-rule:nonzero;fill:rgb(0%,0%,0%);fill-opacity:1;" d="M 190.398438 570.710938 L 194.132812 567.082031 C 199.570312 562.246094 201.660156 560.375 201.660156 556.859375 C 201.660156 552.847656 198.527344 550.042969 194.242188 550.042969 C 190.289062 550.042969 187.707031 553.285156 187.707031 556.417969 C 187.707031 558.34375 189.464844 558.34375 189.574219 558.34375 C 190.179688 558.34375 191.386719 557.957031 191.386719 556.472656 C 191.386719 555.59375 190.726562 554.660156 189.519531 554.660156 C 189.246094 554.660156 189.1875 554.660156 189.078125 554.714844 C 189.847656 552.40625 191.769531 551.140625 193.804688 551.140625 C 196.988281 551.140625 198.472656 554 198.472656 556.859375 C 198.472656 559.660156 196.769531 562.410156 194.792969 564.609375 L 188.089844 572.085938 C 187.707031 572.46875 187.707031 572.578125 187.707031 573.402344 L 200.726562 573.402344 L 201.660156 567.300781 L 200.835938 567.300781 C 200.613281 568.347656 200.394531 569.886719 200.011719 570.433594 C 199.792969 570.710938 197.484375 570.710938 196.714844 570.710938 Z M 190.398438 570.710938 "/>
<path style=" stroke:none;fill-rule:nonzero;fill:rgb(0%,0%,0%);fill-opacity:1;" d="M 219.554688 562.191406 C 219.554688 559.386719 219.390625 556.582031 218.183594 554 C 216.589844 550.59375 213.679688 550.042969 212.25 550.042969 C 210.109375 550.042969 207.582031 550.976562 206.097656 554.21875 C 205 556.640625 204.835938 559.386719 204.835938 562.191406 C 204.835938 564.828125 204.945312 567.960938 206.425781 570.65625 C 207.910156 573.457031 210.492188 574.171875 212.195312 574.171875 C 214.0625 574.171875 216.753906 573.457031 218.292969 570.105469 C 219.390625 567.6875 219.554688 564.9375 219.554688 562.191406 Z M 212.195312 573.402344 C 210.820312 573.402344 208.734375 572.523438 208.128906 569.171875 C 207.746094 567.082031 207.746094 563.839844 207.746094 561.75 C 207.746094 559.496094 207.746094 557.1875 208.019531 555.320312 C 208.679688 551.140625 211.316406 550.8125 212.195312 550.8125 C 213.347656 550.8125 215.65625 551.472656 216.316406 554.933594 C 216.699219 556.914062 216.699219 559.550781 216.699219 561.75 C 216.699219 564.390625 216.699219 566.753906 216.316406 569.007812 C 215.765625 572.359375 213.789062 573.402344 212.195312 573.402344 Z M 212.195312 573.402344 "/>
<path style=" stroke:none;fill-rule:nonzero;fill:rgb(0%,0%,0%);fill-opacity:1;" d="M 308.980469 567.632812 L 308.980469 570.65625 C 308.980469 571.917969 308.871094 572.304688 306.289062 572.304688 L 305.574219 572.304688 L 305.574219 573.402344 C 307 573.292969 308.816406 573.292969 310.296875 573.292969 C 311.78125 573.292969 313.59375 573.292969 315.078125 573.402344 L 315.078125 572.304688 L 314.308594 572.304688 C 311.726562 572.304688 311.671875 571.917969 311.671875 570.65625 L 311.671875 567.632812 L 315.132812 567.632812 L 315.132812 566.53125 L 311.671875 566.53125 L 311.671875 550.59375 C 311.671875 549.878906 311.671875 549.65625 311.066406 549.65625 C 310.792969 549.65625 310.683594 549.65625 310.40625 550.097656 L 299.640625 566.53125 L 299.640625 567.632812 Z M 309.144531 566.53125 L 300.628906 566.53125 L 309.144531 553.449219 Z M 309.144531 566.53125 "/>
<path style=" stroke:none;fill-rule:nonzero;fill:rgb(0%,0%,0%);fill-opacity:1;" d="M 332.257812 562.191406 C 332.257812 559.386719 332.09375 556.582031 330.886719 554 C 329.292969 550.59375 326.382812 550.042969 324.953125 550.042969 C 322.8125 550.042969 320.285156 550.976562 318.800781 554.21875 C 317.703125 556.640625 317.539062 559.386719 317.539062 562.191406 C 317.539062 564.828125 317.648438 567.960938 319.132812 570.65625 C 320.613281 573.457031 323.195312 574.171875 324.898438 574.171875 C 326.765625 574.171875 329.457031 573.457031 330.996094 570.105469 C 332.09375 567.6875 332.257812 564.9375 332.257812 562.191406 Z M 324.898438 573.402344 C 323.527344 573.402344 321.4375 572.523438 320.832031 569.171875 C 320.449219 567.082031 320.449219 563.839844 320.449219 561.75 C 320.449219 559.496094 320.449219 557.1875 320.722656 555.320312 C 321.382812 551.140625 324.019531 550.8125 324.898438 550.8125 C 326.050781 550.8125 328.359375 551.472656 329.019531 554.933594 C 329.402344 556.914062 329.402344 559.550781 329.402344 561.75 C 329.402344 564.390625 329.402344 566.753906 329.019531 569.007812 C 328.46875 572.359375 326.492188 573.402344 324.898438 573.402344 Z M 324.898438 573.402344 "/>
<path style=" stroke:none;fill-rule:nonzero;fill:rgb(0%,0%,0%);fill-opacity:1;" d="M 415.96875 561.914062 L 415.96875 561.035156 C 415.96875 552.1875 420.304688 550.921875 422.121094 550.921875 C 422.941406 550.921875 424.425781 551.140625 425.195312 552.351562 C 424.644531 552.351562 423.273438 552.351562 423.273438 553.890625 C 423.273438 554.988281 424.097656 555.539062 424.867188 555.539062 C 425.414062 555.539062 426.515625 555.210938 426.515625 553.835938 C 426.515625 551.746094 424.976562 550.042969 422.0625 550.042969 C 417.558594 550.042969 412.835938 554.550781 412.835938 562.300781 C 412.835938 571.699219 416.902344 574.171875 420.140625 574.171875 C 424.042969 574.171875 427.394531 570.875 427.394531 566.257812 C 427.394531 561.804688 424.261719 558.453125 420.363281 558.453125 C 418 558.453125 416.679688 560.210938 415.96875 561.914062 Z M 420.140625 573.183594 C 417.945312 573.183594 416.902344 571.09375 416.679688 570.546875 C 416.023438 568.894531 416.023438 566.09375 416.023438 565.488281 C 416.023438 562.738281 417.175781 559.222656 420.304688 559.222656 C 420.910156 559.222656 422.503906 559.222656 423.601562 561.421875 C 424.207031 562.683594 424.207031 564.5 424.207031 566.203125 C 424.207031 567.90625 424.207031 569.664062 423.601562 570.929688 C 422.558594 573.019531 420.964844 573.183594 420.140625 573.183594 Z M 420.140625 573.183594 "/>
<path style=" stroke:none;fill-rule:nonzero;fill:rgb(0%,0%,0%);fill-opacity:1;" d="M 444.960938 562.191406 C 444.960938 559.386719 444.796875 556.582031 443.585938 554 C 441.992188 550.59375 439.082031 550.042969 437.652344 550.042969 C 435.511719 550.042969 432.984375 550.976562 431.5 554.21875 C 430.402344 556.640625 430.238281 559.386719 430.238281 562.191406 C 430.238281 564.828125 430.347656 567.960938 431.832031 570.65625 C 433.316406 573.457031 435.894531 574.171875 437.597656 574.171875 C 439.46875 574.171875 442.160156 573.457031 443.695312 570.105469 C 444.796875 567.6875 444.960938 564.9375 444.960938 562.191406 Z M 437.597656 573.402344 C 436.226562 573.402344 434.136719 572.523438 433.535156 569.171875 C 433.148438 567.082031 433.148438 563.839844 433.148438 561.75 C 433.148438 559.496094 433.148438 557.1875 433.425781 555.320312 C 434.082031 551.140625 436.71875 550.8125 437.597656 550.8125 C 438.753906 550.8125 441.058594 551.472656 441.71875 554.933594 C 442.105469 556.914062 442.105469 559.550781 442.105469 561.75 C 442.105469 564.390625 442.105469 566.753906 441.71875 569.007812 C 441.167969 572.359375 439.191406 573.402344 437.597656 573.402344 Z M 437.597656 573.402344 "/>
<path style=" stroke:none;fill-rule:nonzero;fill:rgb(0%,0%,0%);fill-opacity:1;" d="M 529.769531 557.351562 C 528.175781 556.308594 528.011719 555.15625 528.011719 554.550781 C 528.011719 552.40625 530.320312 550.921875 532.789062 550.921875 C 535.316406 550.921875 537.570312 552.734375 537.570312 555.265625 C 537.570312 557.296875 536.195312 558.949219 534.109375 560.15625 Z M 534.878906 560.707031 C 537.40625 559.386719 539.109375 557.574219 539.109375 555.265625 C 539.109375 552.023438 536.03125 550.042969 532.84375 550.042969 C 529.328125 550.042969 526.472656 552.625 526.472656 555.925781 C 526.472656 556.527344 526.527344 558.121094 528.011719 559.773438 C 528.394531 560.15625 529.714844 561.035156 530.59375 561.640625 C 528.5625 562.683594 525.539062 564.609375 525.539062 568.125 C 525.539062 571.808594 529.109375 574.171875 532.789062 574.171875 C 536.746094 574.171875 540.097656 571.261719 540.097656 567.523438 C 540.097656 566.257812 539.710938 564.664062 538.339844 563.179688 C 537.679688 562.464844 537.128906 562.136719 534.878906 560.707031 Z M 531.363281 562.191406 L 535.703125 564.9375 C 536.691406 565.597656 538.339844 566.644531 538.339844 568.785156 C 538.339844 571.371094 535.703125 573.183594 532.84375 573.183594 C 529.824219 573.183594 527.296875 571.039062 527.296875 568.125 C 527.296875 566.09375 528.394531 563.839844 531.363281 562.191406 Z M 531.363281 562.191406 "/>
<path style=" stroke:none;fill-rule:nonzero;fill:rgb(0%,0%,0%);fill-opacity:1;" d="M 557.664062 562.191406 C 557.664062 559.386719 557.5 556.582031 556.289062 554 C 554.699219 550.59375 551.785156 550.042969 550.359375 550.042969 C 548.214844 550.042969 545.6875 550.976562 544.207031 554.21875 C 543.105469 556.640625 542.941406 559.386719 542.941406 562.191406 C 542.941406 564.828125 543.050781 567.960938 544.535156 570.65625 C 546.019531 573.457031 548.601562 574.171875 550.304688 574.171875 C 552.171875 574.171875 554.863281 573.457031 556.402344 570.105469 C 557.5 567.6875 557.664062 564.9375 557.664062 562.191406 Z M 550.304688 573.402344 C 548.929688 573.402344 546.84375 572.523438 546.238281 569.171875 C 545.855469 567.082031 545.855469 563.839844 545.855469 561.75 C 545.855469 559.496094 545.855469 557.1875 546.128906 555.320312 C 546.789062 551.140625 549.425781 550.8125 550.304688 550.8125 C 551.457031 550.8125 553.765625 551.472656 554.421875 554.933594 C 554.808594 556.914062 554.808594 559.550781 554.808594 561.75 C 554.808594 564.390625 554.808594 566.753906 554.421875 569.007812 C 553.875 572.359375 551.894531 573.402344 550.304688 573.402344 Z M 550.304688 573.402344 "/>
<path style=" stroke:none;fill-rule:nonzero;fill:rgb(0%,0%,0%);fill-opacity:1;" d="M 638.332031 550.976562 C 638.332031 550.097656 638.332031 550.042969 637.507812 550.042969 C 635.308594 552.296875 632.234375 552.296875 631.132812 552.296875 L 631.132812 553.394531 C 631.847656 553.394531 633.878906 553.394531 635.695312 552.460938 L 635.695312 570.65625 C 635.695312 571.917969 635.582031 572.304688 632.453125 572.304688 L 631.355469 572.304688 L 631.355469 573.402344 C 632.5625 573.292969 635.582031 573.292969 637.011719 573.292969 C 638.386719 573.292969 641.460938 573.292969 642.667969 573.402344 L 642.667969 572.304688 L 641.570312 572.304688 C 638.386719 572.304688 638.332031 571.917969 638.332031 570.65625 Z M 638.332031 550.976562 "/>
<path style=" stroke:none;fill-rule:nonzero;fill:rgb(0%,0%,0%);fill-opacity:1;" d="M 661.609375 562.191406 C 661.609375 559.386719 661.445312 556.582031 660.238281 554 C 658.644531 550.59375 655.734375 550.042969 654.304688 550.042969 C 652.164062 550.042969 649.636719 550.976562 648.152344 554.21875 C 647.054688 556.640625 646.890625 559.386719 646.890625 562.191406 C 646.890625 564.828125 647 567.960938 648.480469 570.65625 C 649.964844 573.457031 652.546875 574.171875 654.25 574.171875 C 656.117188 574.171875 658.808594 573.457031 660.347656 570.105469 C 661.445312 567.6875 661.609375 564.9375 661.609375 562.191406 Z M 654.25 573.402344 C 652.875 573.402344 650.789062 572.523438 650.183594 569.171875 C 649.800781 567.082031 649.800781 563.839844 649.800781 561.75 C 649.800781 559.496094 649.800781 557.1875 650.074219 555.320312 C 650.734375 551.140625 653.371094 550.8125 654.25 550.8125 C 655.402344 550.8125 657.710938 551.472656 658.371094 554.933594 C 658.753906 556.914062 658.753906 559.550781 658.753906 561.75 C 658.753906 564.390625 658.753906 566.753906 658.371094 569.007812 C 657.820312 572.359375 655.84375 573.402344 654.25 573.402344 Z M 654.25 573.402344 "/>
<path style=" stroke:none;fill-rule:nonzero;fill:rgb(0%,0%,0%);fill-opacity:1;" d="M 679.121094 562.191406 C 679.121094 559.386719 678.957031 556.582031 677.75 554 C 676.15625 550.59375 673.246094 550.042969 671.816406 550.042969 C 669.675781 550.042969 667.148438 550.976562 665.664062 554.21875 C 664.566406 556.640625 664.402344 559.386719 664.402344 562.191406 C 664.402344 564.828125 664.511719 567.960938 665.996094 570.65625 C 667.476562 573.457031 670.058594 574.171875 671.761719 574.171875 C 673.628906 574.171875 676.320312 573.457031 677.859375 570.105469 C 678.957031 567.6875 679.121094 564.9375 679.121094 562.191406 Z M 671.761719 573.402344 C 670.390625 573.402344 668.300781 572.523438 667.695312 569.171875 C 667.3125 567.082031 667.3125 563.839844 667.3125 561.75 C 667.3125 559.496094 667.3125 557.1875 667.585938 555.320312 C 668.246094 551.140625 670.882812 550.8125 671.761719 550.8125 C 672.914062 550.8125 675.222656 551.472656 675.882812 554.933594 C 676.265625 556.914062 676.265625 559.550781 676.265625 561.75 C 676.265625 564.390625 676.265625 566.753906 675.882812 569.007812 C 675.332031 572.359375 673.355469 573.402344 671.761719 573.402344 Z M 671.761719 573.402344 "/>
<path style=" stroke:none;fill-rule:nonzero;fill:rgb(0%,0%,0%);fill-opacity:1;" d="M 34.773438 429.867188 C 34.773438 427.0625 34.609375 424.257812 33.398438 421.675781 C 31.808594 418.269531 28.894531 417.71875 27.46875 417.71875 C 25.324219 417.71875 22.796875 418.652344 21.316406 421.894531 C 20.214844 424.316406 20.050781 427.0625 20.050781 429.867188 C 20.050781 432.503906 20.160156 435.636719 21.644531 438.332031 C 23.128906 441.132812 25.710938 441.847656 27.414062 441.847656 C 29.28125 441.847656 31.972656 441.132812 33.511719 437.78125 C 34.609375 435.363281 34.773438 432.613281 34.773438 429.867188 Z M 27.414062 441.078125 C 26.039062 441.078125 23.953125 440.199219 23.347656 436.847656 C 22.964844 434.757812 22.964844 431.515625 22.964844 429.425781 C 22.964844 427.171875 22.964844 424.863281 23.238281 422.996094 C 23.898438 418.816406 26.535156 418.488281 27.414062 418.488281 C 28.566406 418.488281 30.875 419.148438 31.53125 422.609375 C 31.917969 424.589844 31.917969 427.226562 31.917969 429.425781 C 31.917969 432.066406 31.917969 434.429688 31.53125 436.683594 C 30.984375 440.035156 29.003906 441.078125 27.414062 441.078125 Z M 27.414062 441.078125 "/>
<path style=" stroke:none;fill-rule:nonzero;fill:rgb(0%,0%,0%);fill-opacity:1;" d="M 42.890625 439.210938 C 42.890625 438.222656 42.066406 437.339844 41.078125 437.339844 C 40.035156 437.339844 39.210938 438.222656 39.210938 439.210938 C 39.210938 440.253906 40.035156 441.078125 41.078125 441.078125 C 42.066406 441.078125 42.890625 440.253906 42.890625 439.210938 Z M 42.890625 439.210938 "/>
<path style=" stroke:none;fill-rule:nonzero;fill:rgb(0%,0%,0%);fill-opacity:1;" d="M 50.371094 438.386719 L 54.105469 434.757812 C 59.542969 429.921875 61.632812 428.050781 61.632812 424.535156 C 61.632812 420.523438 58.5 417.71875 54.214844 417.71875 C 50.261719 417.71875 47.679688 420.960938 47.679688 424.09375 C 47.679688 426.019531 49.4375 426.019531 49.546875 426.019531 C 50.152344 426.019531 51.359375 425.632812 51.359375 424.148438 C 51.359375 423.269531 50.699219 422.335938 49.492188 422.335938 C 49.21875 422.335938 49.160156 422.335938 49.050781 422.390625 C 49.820312 420.082031 51.742188 418.816406 53.777344 418.816406 C 56.960938 418.816406 58.445312 421.675781 58.445312 424.535156 C 58.445312 427.335938 56.742188 430.085938 54.765625 432.285156 L 48.0625 439.761719 C 47.679688 440.144531 47.679688 440.253906 47.679688 441.078125 L 60.699219 441.078125 L 61.632812 434.976562 L 60.808594 434.976562 C 60.585938 436.023438 60.367188 437.5625 59.984375 438.109375 C 59.765625 438.386719 57.457031 438.386719 56.6875 438.386719 Z M 50.371094 438.386719 "/>
<path style=" stroke:none;fill-rule:nonzero;fill:rgb(0%,0%,0%);fill-opacity:1;" d="M 34.773438 336.175781 C 34.773438 333.371094 34.609375 330.570312 33.398438 327.984375 C 31.808594 324.578125 28.894531 324.027344 27.46875 324.027344 C 25.324219 324.027344 22.796875 324.960938 21.316406 328.207031 C 20.214844 330.625 20.050781 333.371094 20.050781 336.175781 C 20.050781 338.8125 20.160156 341.945312 21.644531 344.640625 C 23.128906 347.445312 25.710938 348.15625 27.414062 348.15625 C 29.28125 348.15625 31.972656 347.445312 33.511719 344.089844 C 34.609375 341.671875 34.773438 338.921875 34.773438 336.175781 Z M 27.414062 347.386719 C 26.039062 347.386719 23.953125 346.507812 23.347656 343.15625 C 22.964844 341.066406 22.964844 337.824219 22.964844 335.734375 C 22.964844 333.480469 22.964844 331.171875 23.238281 329.304688 C 23.898438 325.128906 26.535156 324.796875 27.414062 324.796875 C 28.566406 324.796875 30.875 325.457031 31.53125 328.917969 C 31.917969 330.898438 31.917969 333.535156 31.917969 335.734375 C 31.917969 338.375 31.917969 340.738281 31.53125 342.992188 C 30.984375 346.34375 29.003906 347.386719 27.414062 347.386719 Z M 27.414062 347.386719 "/>
<path style=" stroke:none;fill-rule:nonzero;fill:rgb(0%,0%,0%);fill-opacity:1;" d="M 42.890625 345.519531 C 42.890625 344.53125 42.066406 343.652344 41.078125 343.652344 C 40.035156 343.652344 39.210938 344.53125 39.210938 345.519531 C 39.210938 346.5625 40.035156 347.386719 41.078125 347.386719 C 42.066406 347.386719 42.890625 346.5625 42.890625 345.519531 Z M 42.890625 345.519531 "/>
<path style=" stroke:none;fill-rule:nonzero;fill:rgb(0%,0%,0%);fill-opacity:1;" d="M 56.25 341.617188 L 56.25 344.640625 C 56.25 345.90625 56.136719 346.289062 53.554688 346.289062 L 52.84375 346.289062 L 52.84375 347.386719 C 54.269531 347.277344 56.082031 347.277344 57.566406 347.277344 C 59.050781 347.277344 60.863281 347.277344 62.34375 347.386719 L 62.34375 346.289062 L 61.578125 346.289062 C 58.996094 346.289062 58.941406 345.90625 58.941406 344.640625 L 58.941406 341.617188 L 62.402344 341.617188 L 62.402344 340.519531 L 58.941406 340.519531 L 58.941406 324.578125 C 58.941406 323.863281 58.941406 323.644531 58.335938 323.644531 C 58.0625 323.644531 57.949219 323.644531 57.675781 324.082031 L 46.910156 340.519531 L 46.910156 341.617188 Z M 56.414062 340.519531 L 47.898438 340.519531 L 56.414062 327.4375 Z M 56.414062 340.519531 "/>
<path style=" stroke:none;fill-rule:nonzero;fill:rgb(0%,0%,0%);fill-opacity:1;" d="M 34.773438 242.488281 C 34.773438 239.683594 34.609375 236.882812 33.398438 234.296875 C 31.808594 230.890625 28.894531 230.339844 27.46875 230.339844 C 25.324219 230.339844 22.796875 231.273438 21.316406 234.515625 C 20.214844 236.9375 20.050781 239.683594 20.050781 242.488281 C 20.050781 245.125 20.160156 248.257812 21.644531 250.953125 C 23.128906 253.753906 25.710938 254.46875 27.414062 254.46875 C 29.28125 254.46875 31.972656 253.753906 33.511719 250.402344 C 34.609375 247.984375 34.773438 245.234375 34.773438 242.488281 Z M 27.414062 253.699219 C 26.039062 253.699219 23.953125 252.820312 23.347656 249.46875 C 22.964844 247.378906 22.964844 244.136719 22.964844 242.046875 C 22.964844 239.792969 22.964844 237.484375 23.238281 235.617188 C 23.898438 231.4375 26.535156 231.109375 27.414062 231.109375 C 28.566406 231.109375 30.875 231.769531 31.53125 235.230469 C 31.917969 237.210938 31.917969 239.847656 31.917969 242.046875 C 31.917969 244.6875 31.917969 247.050781 31.53125 249.304688 C 30.984375 252.65625 29.003906 253.699219 27.414062 253.699219 Z M 27.414062 253.699219 "/>
<path style=" stroke:none;fill-rule:nonzero;fill:rgb(0%,0%,0%);fill-opacity:1;" d="M 42.890625 251.832031 C 42.890625 250.84375 42.066406 249.964844 41.078125 249.964844 C 40.035156 249.964844 39.210938 250.84375 39.210938 251.832031 C 39.210938 252.875 40.035156 253.699219 41.078125 253.699219 C 42.066406 253.699219 42.890625 252.875 42.890625 251.832031 Z M 42.890625 251.832031 "/>
<path style=" stroke:none;fill-rule:nonzero;fill:rgb(0%,0%,0%);fill-opacity:1;" d="M 50.535156 242.210938 L 50.535156 241.332031 C 50.535156 232.484375 54.875 231.21875 56.6875 231.21875 C 57.511719 231.21875 58.996094 231.4375 59.765625 232.648438 C 59.214844 232.648438 57.839844 232.648438 57.839844 234.1875 C 57.839844 235.285156 58.664062 235.835938 59.433594 235.835938 C 59.984375 235.835938 61.082031 235.507812 61.082031 234.132812 C 61.082031 232.042969 59.542969 230.339844 56.632812 230.339844 C 52.128906 230.339844 47.402344 234.847656 47.402344 242.597656 C 47.402344 251.996094 51.46875 254.46875 54.710938 254.46875 C 58.609375 254.46875 61.960938 251.171875 61.960938 246.554688 C 61.960938 242.101562 58.828125 238.75 54.929688 238.75 C 52.566406 238.75 51.25 240.507812 50.535156 242.210938 Z M 54.710938 253.480469 C 52.511719 253.480469 51.46875 251.390625 51.25 250.84375 C 50.589844 249.195312 50.589844 246.390625 50.589844 245.785156 C 50.589844 243.039062 51.742188 239.519531 54.875 239.519531 C 55.480469 239.519531 57.070312 239.519531 58.171875 241.71875 C 58.773438 242.980469 58.773438 244.796875 58.773438 246.5 C 58.773438 248.203125 58.773438 249.964844 58.171875 251.226562 C 57.128906 253.316406 55.535156 253.480469 54.710938 253.480469 Z M 54.710938 253.480469 "/>
<path style=" stroke:none;fill-rule:nonzero;fill:rgb(0%,0%,0%);fill-opacity:1;" d="M 34.773438 148.796875 C 34.773438 145.992188 34.609375 143.191406 33.398438 140.605469 C 31.808594 137.199219 28.894531 136.648438 27.46875 136.648438 C 25.324219 136.648438 22.796875 137.582031 21.316406 140.828125 C 20.214844 143.246094 20.050781 145.992188 20.050781 148.796875 C 20.050781 151.433594 20.160156 154.566406 21.644531 157.261719 C 23.128906 160.066406 25.710938 160.777344 27.414062 160.777344 C 29.28125 160.777344 31.972656 160.066406 33.511719 156.710938 C 34.609375 154.292969 34.773438 151.542969 34.773438 148.796875 Z M 27.414062 160.007812 C 26.039062 160.007812 23.953125 159.128906 23.347656 155.777344 C 22.964844 153.6875 22.964844 150.445312 22.964844 148.355469 C 22.964844 146.101562 22.964844 143.792969 23.238281 141.925781 C 23.898438 137.75 26.535156 137.417969 27.414062 137.417969 C 28.566406 137.417969 30.875 138.078125 31.53125 141.539062 C 31.917969 143.519531 31.917969 146.15625 31.917969 148.355469 C 31.917969 150.996094 31.917969 153.359375 31.53125 155.613281 C 30.984375 158.964844 29.003906 160.007812 27.414062 160.007812 Z M 27.414062 160.007812 "/>
<path style=" stroke:none;fill-rule:nonzero;fill:rgb(0%,0%,0%);fill-opacity:1;" d="M 42.890625 158.140625 C 42.890625 157.152344 42.066406 156.273438 41.078125 156.273438 C 40.035156 156.273438 39.210938 157.152344 39.210938 158.140625 C 39.210938 159.183594 40.035156 160.007812 41.078125 160.007812 C 42.066406 160.007812 42.890625 159.183594 42.890625 158.140625 Z M 42.890625 158.140625 "/>
<path style=" stroke:none;fill-rule:nonzero;fill:rgb(0%,0%,0%);fill-opacity:1;" d="M 51.632812 143.960938 C 50.039062 142.914062 49.875 141.761719 49.875 141.15625 C 49.875 139.011719 52.183594 137.527344 54.65625 137.527344 C 57.183594 137.527344 59.433594 139.34375 59.433594 141.871094 C 59.433594 143.90625 58.0625 145.554688 55.972656 146.761719 Z M 56.742188 147.3125 C 59.269531 145.992188 60.972656 144.179688 60.972656 141.871094 C 60.972656 138.628906 57.894531 136.648438 54.710938 136.648438 C 51.195312 136.648438 48.339844 139.230469 48.339844 142.53125 C 48.339844 143.136719 48.394531 144.730469 49.875 146.378906 C 50.261719 146.761719 51.578125 147.640625 52.457031 148.246094 C 50.425781 149.292969 47.402344 151.214844 47.402344 154.734375 C 47.402344 158.414062 50.976562 160.777344 54.65625 160.777344 C 58.609375 160.777344 61.960938 157.867188 61.960938 154.128906 C 61.960938 152.863281 61.578125 151.269531 60.203125 149.785156 C 59.542969 149.070312 58.996094 148.742188 56.742188 147.3125 Z M 53.226562 148.796875 L 57.566406 151.542969 C 58.554688 152.203125 60.203125 153.25 60.203125 155.390625 C 60.203125 157.976562 57.566406 159.789062 54.710938 159.789062 C 51.6875 159.789062 49.160156 157.644531 49.160156 154.734375 C 49.160156 152.699219 50.261719 150.445312 53.226562 148.796875 Z M 53.226562 148.796875 "/>
<path style=" stroke:none;fill-rule:nonzero;fill:rgb(0%,0%,0%);fill-opacity:1;" d="M 56.25 43.890625 C 56.25 43.011719 56.25 42.957031 55.425781 42.957031 C 53.226562 45.210938 50.152344 45.210938 49.050781 45.210938 L 49.050781 46.3125 C 49.765625 46.3125 51.796875 46.3125 53.613281 45.375 L 53.613281 63.570312 C 53.613281 64.835938 53.5 65.21875 50.371094 65.21875 L 49.273438 65.21875 L 49.273438 66.320312 C 50.480469 66.207031 53.5 66.207031 54.929688 66.207031 C 56.304688 66.207031 59.378906 66.207031 60.585938 66.320312 L 60.585938 65.21875 L 59.488281 65.21875 C 56.304688 65.21875 56.25 64.835938 56.25 63.570312 Z M 56.25 43.890625 "/>
<path style="fill:none;stroke-width:0.79701;stroke-linecap:butt;stroke-linejoin:miter;stroke:rgb(100%,0%,0%);stroke-opacity:1;stroke-miterlimit:10;" d="M 4.808 128.281987 L 5.194667 127.14049 L 5.581333 126.007876 L 5.968 124.879703 L 6.354667 123.758193 L 7.128 121.531829 L 7.514667 120.425864 L 7.901333 119.328783 L 8.288 118.238364 L 8.674667 117.144614 L 9.448 114.988206 L 9.834667 113.917774 L 10.221333 112.856226 L 10.608 111.796898 L 10.994667 110.742013 L 11.381333 109.69601 L 11.768 108.652228 L 12.154667 107.61733 L 12.542444 106.585763 L 12.929111 105.563079 L 13.315778 104.543726 L 13.702444 103.531036 L 14.089111 102.523897 L 14.475778 101.523421 L 14.862444 100.527387 L 15.635778 98.550864 L 16.022444 97.574817 L 16.409111 96.602102 L 16.795778 95.632717 L 17.182444 94.672216 L 17.569111 93.719487 L 17.955778 92.77009 L 18.342444 91.824024 L 18.729111 90.886841 L 19.112444 89.95299 L 19.499111 89.028022 L 19.885778 88.105274 L 20.272444 87.188079 L 20.659111 86.281987 L 21.045778 85.379227 L 21.432444 84.480909 L 21.819111 83.585921 L 22.205778 82.699817 L 22.592444 81.817044 L 23.365778 80.074817 L 23.752444 79.210921 L 24.525778 77.499786 L 25.300222 75.813079 L 25.686889 74.976943 L 26.073556 74.14858 L 26.460222 73.324659 L 26.846889 72.50851 L 27.233556 71.695693 L 27.620222 70.887317 L 28.006889 70.086714 L 28.393556 69.292774 L 28.780222 68.504386 L 29.166889 67.719329 L 29.940222 66.172533 L 30.326889 65.406353 L 30.713556 64.644614 L 31.100222 63.890648 L 31.486889 63.141124 L 31.873556 62.398263 L 32.260222 61.660953 L 32.646889 60.930306 L 33.033556 60.20299 L 33.421333 59.484557 L 33.808 58.769456 L 34.194667 58.058796 L 34.581333 57.355909 L 34.968 56.660794 L 35.354667 55.969011 L 35.741333 55.28167 L 36.123556 54.602102 L 36.896889 53.25851 L 37.283556 52.597819 L 37.671333 51.941569 L 38.058 51.28976 L 38.444667 50.641283 L 39.218 49.367647 L 39.991333 48.11733 L 40.378 47.499944 L 40.764667 46.891442 L 41.151333 46.28516 L 41.538 45.68332 L 41.924667 45.090363 L 42.311333 44.500737 L 42.698 43.917774 L 43.084667 43.343694 L 43.471333 42.774056 L 43.858 42.207749 L 44.244667 41.649214 L 44.631333 41.094011 L 45.018 40.54325 L 45.792444 39.465046 L 46.179111 38.934272 L 46.565778 38.41016 L 46.952444 37.89049 L 47.725778 36.867806 L 48.112444 36.367013 L 48.499111 35.871772 L 48.885778 35.378751 L 49.272444 34.894614 L 49.659111 34.413808 L 50.045778 33.941886 L 50.432444 33.473294 L 50.819111 33.012476 L 51.205778 32.554989 L 51.592444 32.105274 L 51.979111 31.660001 L 52.365778 31.222501 L 52.752444 30.789443 L 53.135778 30.359716 L 53.522444 29.937761 L 53.909111 29.52358 L 54.295778 29.11384 L 54.682444 28.707431 L 55.069111 28.308796 L 55.842444 27.52707 L 56.615778 26.769773 L 57.389111 26.035794 L 58.163556 25.324024 L 58.550222 24.976467 L 58.936889 24.636683 L 59.323556 24.30134 L 59.710222 23.97266 L 60.096889 23.648421 L 60.483556 23.328624 L 60.870222 23.01549 L 61.256889 22.706797 L 61.643556 22.406987 L 62.030222 22.109398 L 62.416889 21.820693 L 63.190222 21.257717 L 63.963556 20.71917 L 64.350222 20.457114 L 64.736889 20.203942 L 65.123556 19.95299 L 65.510222 19.710921 L 65.896889 19.473294 L 66.283556 19.238999 L 66.671333 19.012476 L 67.058 18.793726 L 67.444667 18.578307 L 67.831333 18.36733 L 68.218 18.164126 L 68.604667 17.965363 L 68.991333 17.773263 L 69.378 17.586714 L 69.764667 17.406829 L 70.146889 17.230274 L 70.533556 17.062603 L 70.921333 16.898263 L 71.308 16.738364 L 71.694667 16.586239 L 72.081333 16.441886 L 72.468 16.300864 L 72.854667 16.164284 L 73.241333 16.035477 L 73.628 15.914443 L 74.014667 15.79674 L 74.401333 15.683478 L 74.788 15.57799 L 75.174667 15.476943 L 75.561333 15.382558 L 75.948 15.293726 L 76.334667 15.211556 L 76.721333 15.132717 L 77.108 15.062761 L 77.494667 14.996137 L 77.881333 14.933954 L 78.268 14.879544 L 78.654667 14.831797 L 79.042444 14.789602 L 79.429111 14.750737 L 79.815778 14.718536 L 80.589111 14.671898 L 80.975778 14.660794 L 81.362444 14.653022 L 81.749111 14.64858 " transform="matrix(3.515625,0,0,-3.517857,85.120312,528.160518)"/>
<path style="fill:none;stroke-width:0.79701;stroke-linecap:butt;stroke-linejoin:miter;stroke:rgb(0%,100%,0%);stroke-opacity:1;stroke-miterlimit:10;" d="M 8.014667 132.324976 L 8.385778 131.277863 L 8.756889 130.238523 L 9.128 129.203624 L 9.494667 128.172057 L 10.236889 126.125579 L 10.979111 124.101308 L 11.721333 122.101467 L 12.089111 121.105433 L 12.460222 120.117171 L 13.202444 118.156194 L 13.573556 117.183478 L 13.944667 116.215204 L 14.311333 115.258034 L 14.682444 114.300864 L 15.053556 113.348136 L 15.424667 112.40318 L 15.795778 111.461556 L 16.538 109.593853 L 16.904667 108.672216 L 17.275778 107.750579 L 17.646889 106.836714 L 18.018 105.926181 L 18.389111 105.023421 L 18.760222 104.125103 L 19.131333 103.231226 L 19.499111 102.344011 L 19.870222 101.461239 L 20.241333 100.581797 L 20.612444 99.711239 L 20.983556 98.844011 L 21.354667 97.981226 L 21.725778 97.125103 L 22.092444 96.273421 L 22.834667 94.586714 L 23.205778 93.750579 L 23.576889 92.922216 L 23.948 92.098294 L 24.319111 91.277704 L 24.686889 90.461556 L 25.058 89.65207 L 25.800222 88.050864 L 26.171333 87.258034 L 26.542444 86.468536 L 26.912444 85.68792 L 27.280222 84.910636 L 27.651333 84.136683 L 28.022444 83.371613 L 28.393556 82.609874 L 28.764667 81.851467 L 29.135778 81.101943 L 29.502444 80.35575 L 30.244667 78.87891 L 30.986889 77.426499 L 31.358 76.706956 L 31.729111 75.992964 L 32.096889 75.285636 L 32.468 74.582749 L 32.839111 73.883193 L 33.581333 72.500737 L 34.323556 71.14049 L 34.690222 70.468694 L 35.432444 69.140648 L 35.803556 68.484398 L 36.545778 67.187444 L 36.916889 66.54674 L 37.283556 65.913808 L 37.654667 65.285319 L 38.025778 64.66016 L 38.396889 64.039443 L 38.768 63.426499 L 39.139111 62.816886 L 39.510222 62.215046 L 39.878 61.613206 L 40.620222 60.433954 L 40.991333 59.852102 L 41.362444 59.27358 L 41.733556 58.703942 L 42.100222 58.136524 L 42.471333 57.574659 L 42.842444 57.019456 L 43.213556 56.468694 L 43.584667 55.922374 L 43.955778 55.382717 L 44.326889 54.847501 L 44.694667 54.316727 L 45.065778 53.793726 L 45.436889 53.274056 L 46.179111 52.250261 L 46.921333 51.249786 L 47.288 50.757876 L 47.659111 50.269297 L 48.030222 49.789602 L 48.401333 49.313237 L 48.772444 48.840204 L 49.143556 48.371613 L 49.514667 47.910794 L 49.881333 47.457749 L 50.252444 47.004703 L 50.623556 46.55832 L 51.365778 45.68332 L 51.736889 45.254703 L 52.108 44.832749 L 52.475778 44.410794 L 52.846889 43.996613 L 53.218 43.590204 L 53.589111 43.188237 L 53.960222 42.789602 L 54.331333 42.394297 L 54.698 42.007876 L 55.069111 41.624786 L 55.440222 41.250579 L 55.811333 40.879703 L 56.182444 40.512159 L 56.553556 40.149056 L 56.924667 39.793726 L 57.292444 39.445058 L 57.663556 39.097501 L 58.033556 38.757717 L 58.775778 38.093694 L 59.146889 37.769456 L 59.518 37.45299 L 59.885778 37.136524 L 60.256889 36.828942 L 60.628 36.528022 L 60.999111 36.230433 L 61.370222 35.937286 L 61.741333 35.64858 L 62.112444 35.367647 L 62.479111 35.090046 L 62.850222 34.820217 L 63.221333 34.55483 L 63.592444 34.292774 L 63.963556 34.03516 L 64.334667 33.785319 L 64.705778 33.538808 L 65.073556 33.301181 L 65.444667 33.066886 L 65.815778 32.835921 L 66.186889 32.61384 L 66.558 32.39509 L 66.929111 32.179671 L 67.295778 31.973136 L 67.666889 31.769931 L 68.409111 31.379069 L 68.780222 31.19141 L 69.151333 31.011524 L 69.522444 30.83608 L 69.889111 30.663967 L 70.260222 30.496296 L 70.631333 30.336397 L 71.002444 30.17983 L 71.373556 30.031036 L 71.744667 29.886683 L 72.115778 29.746772 L 72.483556 29.613523 L 72.854667 29.484716 L 73.225778 29.35924 L 73.596889 29.238206 L 73.968 29.124944 L 74.710222 28.913967 L 75.076889 28.816251 L 75.448 28.726308 L 75.819111 28.640807 L 76.190222 28.558637 L 76.561333 28.480909 L 76.932444 28.410953 L 77.303556 28.344329 L 77.671333 28.285477 L 78.042444 28.226626 L 78.783556 28.133352 L 79.154667 28.094487 L 79.525778 28.058954 L 79.893556 28.031194 L 80.264667 28.007876 L 80.635778 27.988999 L 81.006889 27.976784 L 81.378 27.969011 L 81.749111 27.96457 " transform="matrix(3.515625,0,0,-3.517857,85.120312,528.160518)"/>
<path style="fill:none;stroke-width:0.79701;stroke-linecap:butt;stroke-linejoin:miter;stroke:rgb(100%,0%,0%);stroke-opacity:1;stroke-miterlimit:10;" d="M 81.749111 14.64858 L 161.893556 14.64858 " transform="matrix(3.515625,0,0,-3.517857,85.120312,528.160518)"/>
<path style="fill:none;stroke-width:0.79701;stroke-linecap:butt;stroke-linejoin:miter;stroke:rgb(0%,100%,0%);stroke-opacity:1;stroke-miterlimit:10;" d="M 81.749111 27.96457 L 82.151333 27.96457 L 83.358 27.976784 L 83.760222 27.984557 L 84.163556 27.996772 L 84.569111 28.004544 L 84.971333 28.02009 L 85.373556 28.031194 L 85.775778 28.04674 L 86.983556 28.105591 L 87.788 28.152228 L 88.194667 28.179989 L 88.596889 28.207749 L 89.803556 28.301023 L 90.608 28.370978 L 91.815778 28.488681 L 92.221333 28.531987 L 93.429111 28.671898 L 94.635778 28.824024 L 95.038 28.879544 L 95.440222 28.937286 L 95.842444 28.992806 L 96.249111 29.054989 L 96.651333 29.11384 L 97.053556 29.180464 L 97.455778 29.242647 L 97.858 29.309272 L 98.260222 29.379227 L 98.663556 29.445852 L 99.870222 29.667933 L 100.275778 29.74233 L 100.679111 29.820058 L 101.885778 30.066569 L 103.092444 30.324183 L 103.494667 30.414126 L 103.896889 30.50851 L 104.303556 30.601784 L 104.705778 30.695058 L 105.510222 30.89049 L 106.718 31.195852 L 107.522444 31.406829 L 107.924667 31.515648 L 108.331333 31.625579 L 109.538 31.965363 L 109.940222 32.081956 L 111.550222 32.567203 L 111.955778 32.691569 L 113.163556 33.07799 L 113.968 33.344487 L 115.174667 33.754227 L 115.576889 33.895249 L 115.983556 34.039602 L 117.190222 34.47266 L 117.592444 34.624786 L 117.994667 34.77358 L 118.800222 35.078942 L 119.604667 35.390966 L 120.010222 35.550864 L 120.413556 35.710763 L 121.620222 36.203783 L 122.424667 36.539126 L 123.229111 36.883352 L 123.631333 37.058796 L 124.038 37.23424 L 124.440222 37.410794 L 125.244667 37.769456 L 126.452444 38.320217 L 126.854667 38.507876 L 127.659111 38.890966 L 128.065778 39.081956 L 129.272444 39.66825 L 129.674667 39.867013 L 130.881333 40.476626 L 131.686889 40.890807 L 132.092444 41.101784 L 132.896889 41.523739 L 133.702444 41.953466 L 134.506889 42.390966 L 135.311333 42.836239 L 135.718 43.05832 L 136.522444 43.512476 L 137.326889 43.973294 L 138.533556 44.676181 L 138.936889 44.913808 L 139.339111 45.156987 L 139.744667 45.394614 L 140.146889 45.641124 L 140.550222 45.883193 L 140.952444 46.129703 L 142.159111 46.879227 L 142.963556 47.386683 L 143.365778 47.644297 L 143.772444 47.903022 L 144.174667 48.160636 L 144.576889 48.422692 L 144.979111 48.688079 L 145.381333 48.949024 L 145.783556 49.218853 L 146.186889 49.48424 L 146.589111 49.754069 L 147.393556 50.301499 L 147.800222 50.574659 L 148.604667 51.128751 L 149.811333 51.97266 L 150.213556 52.258034 L 151.421333 53.125261 L 151.826889 53.418409 L 152.631333 54.004703 L 153.033556 54.301181 L 153.436889 54.602102 L 153.839111 54.89858 L 154.241333 55.203942 L 154.643556 55.503751 L 155.045778 55.809113 L 155.448 56.117806 L 155.854667 56.426499 L 156.256889 56.735192 L 156.659111 57.047216 L 157.061333 57.363681 L 157.463556 57.675706 L 157.865778 57.992171 L 159.073556 58.953783 L 159.479111 59.278022 L 159.881333 59.60226 L 160.686889 60.25851 L 161.893556 61.254544 " transform="matrix(3.515625,0,0,-3.517857,85.120312,528.160518)"/>
<path style="fill:none;stroke-width:0.3985;stroke-linecap:butt;stroke-linejoin:miter;stroke:rgb(0%,0%,0%);stroke-opacity:1;stroke-dasharray:2.98883,2.98883;stroke-miterlimit:10;" d="M 81.749111 14.64858 L 81.749111 27.96457 " transform="matrix(3.515625,0,0,-3.517857,85.120312,528.160518)"/>
<path style=" stroke:none;fill-rule:nonzero;fill:rgb(0%,0%,0%);fill-opacity:1;" d="M 424.6875 445.679688 C 424.6875 441.226562 421.230469 437.488281 417 437.488281 C 412.605469 437.488281 409.199219 441.335938 409.199219 445.679688 C 409.199219 450.242188 412.824219 453.59375 416.945312 453.59375 C 421.171875 453.59375 424.6875 450.132812 424.6875 445.679688 Z M 417 452.714844 C 415.460938 452.714844 413.921875 452 412.988281 450.351562 C 412.109375 448.8125 412.109375 446.667969 412.109375 445.402344 C 412.109375 444.03125 412.109375 442.160156 412.933594 440.621094 C 413.867188 439.027344 415.515625 438.257812 416.945312 438.257812 C 418.480469 438.257812 419.964844 439.027344 420.898438 440.566406 C 421.832031 442.050781 421.832031 444.085938 421.832031 445.402344 C 421.832031 446.667969 421.832031 448.59375 421.0625 450.132812 C 420.238281 451.726562 418.703125 452.714844 417 452.714844 Z M 417 452.714844 "/>
<path style=" stroke:none;fill-rule:nonzero;fill:rgb(0%,0%,0%);fill-opacity:1;" d="M 440.277344 441.554688 C 440.609375 440.730469 441.210938 439.191406 443.519531 439.191406 L 443.519531 438.09375 C 442.695312 438.148438 441.707031 438.203125 440.882812 438.203125 C 440.058594 438.203125 438.464844 438.148438 437.859375 438.09375 L 437.859375 439.191406 C 439.125 439.191406 439.507812 440.015625 439.507812 440.675781 C 439.507812 441.007812 439.453125 441.171875 439.34375 441.554688 L 435.71875 450.460938 L 431.820312 440.675781 C 431.597656 440.238281 431.597656 440.183594 431.597656 440.070312 C 431.597656 439.191406 432.972656 439.191406 433.632812 439.191406 L 433.632812 438.09375 C 432.53125 438.148438 430.609375 438.203125 429.785156 438.203125 C 428.851562 438.203125 427.425781 438.148438 426.378906 438.09375 L 426.378906 439.191406 C 428.578125 439.191406 428.742188 439.414062 429.183594 440.457031 L 434.234375 452.933594 C 434.457031 453.429688 434.511719 453.59375 434.949219 453.59375 C 435.445312 453.59375 435.554688 453.265625 435.71875 452.933594 Z M 440.277344 441.554688 "/>
<path style=" stroke:none;fill-rule:nonzero;fill:rgb(0%,0%,0%);fill-opacity:1;" d="M 448.105469 444.359375 C 448.324219 439.136719 451.292969 438.257812 452.5 438.257812 C 456.070312 438.257812 456.457031 442.984375 456.457031 444.359375 Z M 448.105469 445.128906 L 457.882812 445.128906 C 458.652344 445.128906 458.761719 445.128906 458.761719 444.359375 C 458.761719 440.898438 456.839844 437.488281 452.5 437.488281 C 448.4375 437.488281 445.195312 441.117188 445.195312 445.515625 C 445.195312 450.1875 448.875 453.59375 452.886719 453.59375 C 457.171875 453.59375 458.761719 449.691406 458.761719 449.03125 C 458.761719 448.703125 458.488281 448.59375 458.269531 448.59375 C 457.992188 448.59375 457.882812 448.8125 457.828125 449.085938 C 456.621094 452.714844 453.433594 452.714844 453.105469 452.714844 C 451.347656 452.714844 449.972656 451.671875 449.148438 450.351562 C 448.105469 448.703125 448.105469 446.394531 448.105469 445.128906 Z M 448.105469 445.128906 "/>
<path style=" stroke:none;fill-rule:nonzero;fill:rgb(0%,0%,0%);fill-opacity:1;" d="M 465.652344 441.554688 L 465.652344 437.707031 L 460.761719 438.09375 L 460.761719 439.191406 C 463.234375 439.191406 463.507812 439.414062 463.507812 441.171875 L 463.507812 450.570312 C 463.507812 452.109375 463.125 452.109375 460.761719 452.109375 L 460.761719 453.210938 C 462.136719 453.152344 463.785156 453.097656 464.773438 453.097656 C 466.144531 453.097656 467.792969 453.097656 469.222656 453.210938 L 469.222656 452.109375 L 468.453125 452.109375 C 465.871094 452.109375 465.816406 451.726562 465.816406 450.460938 L 465.816406 445.074219 C 465.816406 441.609375 467.300781 438.476562 469.9375 438.476562 C 470.15625 438.476562 470.265625 438.476562 470.320312 438.53125 C 470.210938 438.53125 469.496094 438.972656 469.496094 439.90625 C 469.496094 440.839844 470.265625 441.390625 471.035156 441.390625 C 471.640625 441.390625 472.515625 440.953125 472.515625 439.851562 C 472.515625 438.753906 471.417969 437.707031 469.9375 437.707031 C 467.355469 437.707031 466.089844 440.070312 465.652344 441.554688 Z M 465.652344 441.554688 "/>
<path style=" stroke:none;fill-rule:nonzero;fill:rgb(0%,0%,0%);fill-opacity:1;" d="M 479.644531 438.09375 L 479.644531 434.027344 C 479.644531 430.949219 481.292969 429.242188 482.828125 429.242188 C 482.941406 429.242188 483.488281 429.242188 483.984375 429.519531 C 483.597656 429.628906 482.941406 430.125 482.941406 431.003906 C 482.941406 431.773438 483.488281 432.488281 484.476562 432.488281 C 485.464844 432.488281 486.015625 431.773438 486.015625 430.949219 C 486.015625 429.628906 484.699219 428.472656 482.828125 428.472656 C 480.414062 428.472656 477.390625 430.34375 477.390625 434.082031 L 477.390625 438.09375 L 474.644531 438.09375 L 474.644531 439.191406 L 477.390625 439.191406 L 477.390625 450.570312 C 477.390625 452.109375 477.007812 452.109375 474.699219 452.109375 L 474.699219 453.210938 C 476.074219 453.152344 477.722656 453.097656 478.65625 453.097656 C 480.082031 453.097656 481.730469 453.097656 483.105469 453.210938 L 483.105469 452.109375 L 482.390625 452.109375 C 479.808594 452.109375 479.753906 451.726562 479.753906 450.460938 L 479.753906 439.191406 L 483.707031 439.191406 L 483.707031 438.09375 Z M 479.644531 438.09375 "/>
<path style=" stroke:none;fill-rule:nonzero;fill:rgb(0%,0%,0%);fill-opacity:1;" d="M 490.398438 437.707031 L 485.511719 438.09375 L 485.511719 439.191406 C 487.761719 439.191406 488.09375 439.414062 488.09375 441.117188 L 488.09375 450.570312 C 488.09375 452.109375 487.707031 452.109375 485.347656 452.109375 L 485.347656 453.210938 C 486.445312 453.152344 488.367188 453.097656 489.191406 453.097656 C 490.457031 453.097656 491.664062 453.152344 492.871094 453.210938 L 492.871094 452.109375 C 490.511719 452.109375 490.398438 451.945312 490.398438 450.570312 Z M 490.511719 431.605469 C 490.511719 430.507812 489.6875 429.738281 488.699219 429.738281 C 487.597656 429.738281 486.828125 430.671875 486.828125 431.605469 C 486.828125 432.542969 487.597656 433.476562 488.699219 433.476562 C 489.6875 433.476562 490.511719 432.707031 490.511719 431.605469 Z M 490.511719 431.605469 "/>
<path style=" stroke:none;fill-rule:nonzero;fill:rgb(0%,0%,0%);fill-opacity:1;" d="M 499.964844 439.191406 L 505.015625 439.191406 L 505.015625 438.09375 L 499.964844 438.09375 L 499.964844 431.664062 L 499.085938 431.664062 C 499.085938 434.519531 498.039062 438.257812 494.578125 438.421875 L 494.578125 439.191406 L 497.546875 439.191406 L 497.546875 448.867188 C 497.546875 453.152344 500.84375 453.59375 502.105469 453.59375 C 504.578125 453.59375 505.566406 451.121094 505.566406 448.867188 L 505.566406 446.886719 L 504.6875 446.886719 L 504.6875 448.8125 C 504.6875 451.394531 503.644531 452.714844 502.324219 452.714844 C 499.964844 452.714844 499.964844 449.527344 499.964844 448.921875 Z M 499.964844 439.191406 "/>
<path style=" stroke:none;fill-rule:nonzero;fill:rgb(0%,0%,0%);fill-opacity:1;" d="M 513.585938 439.191406 L 518.640625 439.191406 L 518.640625 438.09375 L 513.585938 438.09375 L 513.585938 431.664062 L 512.707031 431.664062 C 512.707031 434.519531 511.664062 438.257812 508.203125 438.421875 L 508.203125 439.191406 L 511.167969 439.191406 L 511.167969 448.867188 C 511.167969 453.152344 514.464844 453.59375 515.730469 453.59375 C 518.199219 453.59375 519.1875 451.121094 519.1875 448.867188 L 519.1875 446.886719 L 518.308594 446.886719 L 518.308594 448.8125 C 518.308594 451.394531 517.265625 452.714844 515.949219 452.714844 C 513.585938 452.714844 513.585938 449.527344 513.585938 448.921875 Z M 513.585938 439.191406 "/>
<path style=" stroke:none;fill-rule:nonzero;fill:rgb(0%,0%,0%);fill-opacity:1;" d="M 527.371094 437.707031 L 522.480469 438.09375 L 522.480469 439.191406 C 524.734375 439.191406 525.0625 439.414062 525.0625 441.117188 L 525.0625 450.570312 C 525.0625 452.109375 524.679688 452.109375 522.316406 452.109375 L 522.316406 453.210938 C 523.414062 453.152344 525.339844 453.097656 526.160156 453.097656 C 527.425781 453.097656 528.632812 453.152344 529.84375 453.210938 L 529.84375 452.109375 C 527.480469 452.109375 527.371094 451.945312 527.371094 450.570312 Z M 527.480469 431.605469 C 527.480469 430.507812 526.65625 429.738281 525.667969 429.738281 C 524.570312 429.738281 523.800781 430.671875 523.800781 431.605469 C 523.800781 432.542969 524.570312 433.476562 525.667969 433.476562 C 526.65625 433.476562 527.480469 432.707031 527.480469 431.605469 Z M 527.480469 431.605469 "/>
<path style=" stroke:none;fill-rule:nonzero;fill:rgb(0%,0%,0%);fill-opacity:1;" d="M 534.734375 441.171875 L 534.734375 450.570312 C 534.734375 452.109375 534.351562 452.109375 531.988281 452.109375 L 531.988281 453.210938 C 533.253906 453.152344 535.011719 453.097656 536 453.097656 C 536.878906 453.097656 538.691406 453.152344 539.898438 453.210938 L 539.898438 452.109375 C 537.539062 452.109375 537.152344 452.109375 537.152344 450.570312 L 537.152344 444.085938 C 537.152344 440.457031 539.679688 438.476562 541.878906 438.476562 C 544.128906 438.476562 544.515625 440.347656 544.515625 442.378906 L 544.515625 450.570312 C 544.515625 452.109375 544.128906 452.109375 541.765625 452.109375 L 541.765625 453.210938 C 542.976562 453.152344 544.789062 453.097656 545.722656 453.097656 C 546.601562 453.097656 548.46875 453.152344 549.621094 453.210938 L 549.621094 452.109375 C 547.808594 452.109375 546.929688 452.109375 546.929688 451.066406 L 546.929688 444.359375 C 546.929688 441.335938 546.929688 440.292969 545.832031 439.027344 C 545.339844 438.421875 544.183594 437.707031 542.152344 437.707031 C 539.570312 437.707031 537.921875 439.191406 536.933594 441.390625 L 536.933594 437.707031 L 531.988281 438.09375 L 531.988281 439.191406 C 534.460938 439.191406 534.734375 439.414062 534.734375 441.171875 Z M 534.734375 441.171875 "/>
<path style=" stroke:none;fill-rule:nonzero;fill:rgb(0%,0%,0%);fill-opacity:1;" d="M 558.148438 447.164062 C 555.074219 447.164062 555.074219 443.644531 555.074219 442.875 C 555.074219 441.941406 555.128906 440.785156 555.625 439.90625 C 555.898438 439.523438 556.722656 438.53125 558.148438 438.53125 C 561.171875 438.53125 561.171875 441.996094 561.171875 442.820312 C 561.171875 443.753906 561.171875 444.910156 560.621094 445.789062 C 560.347656 446.171875 559.523438 447.164062 558.148438 447.164062 Z M 554.085938 448.535156 C 554.085938 448.425781 554.085938 447.601562 554.632812 446.886719 C 556.007812 447.878906 557.492188 447.988281 558.148438 447.988281 C 561.390625 447.988281 563.808594 445.570312 563.808594 442.875 C 563.808594 441.554688 563.257812 440.292969 562.378906 439.46875 C 563.644531 438.257812 564.90625 438.09375 565.511719 438.09375 C 565.621094 438.09375 565.785156 438.09375 565.894531 438.148438 C 565.511719 438.257812 565.292969 438.644531 565.292969 439.082031 C 565.292969 439.6875 565.785156 440.070312 566.335938 440.070312 C 566.664062 440.070312 567.324219 439.851562 567.324219 439.027344 C 567.324219 438.421875 566.9375 437.324219 565.566406 437.324219 C 564.851562 437.324219 563.3125 437.542969 561.832031 438.972656 C 560.347656 437.820312 558.917969 437.707031 558.148438 437.707031 C 554.855469 437.707031 552.4375 440.128906 552.4375 442.820312 C 552.4375 444.359375 553.207031 445.679688 554.085938 446.449219 C 553.644531 446.941406 552.988281 448.097656 552.988281 449.363281 C 552.988281 450.460938 553.480469 451.78125 554.578125 452.496094 C 552.4375 453.042969 551.339844 454.582031 551.339844 455.957031 C 551.339844 458.484375 554.800781 460.410156 559.085938 460.410156 C 563.203125 460.410156 566.828125 458.652344 566.828125 455.902344 C 566.828125 454.691406 566.390625 452.878906 564.578125 451.890625 C 562.710938 450.957031 560.675781 450.957031 558.535156 450.957031 C 557.65625 450.957031 556.171875 450.957031 555.898438 450.902344 C 554.800781 450.734375 554.085938 449.691406 554.085938 448.535156 Z M 559.140625 459.640625 C 555.570312 459.640625 553.152344 457.828125 553.152344 455.957031 C 553.152344 454.363281 554.46875 453.042969 556.007812 452.988281 L 558.09375 452.988281 C 561.117188 452.988281 565.015625 452.988281 565.015625 455.957031 C 565.015625 457.882812 562.542969 459.640625 559.140625 459.640625 Z M 559.140625 459.640625 "/>
<path style="fill:none;stroke-width:0.3985;stroke-linecap:butt;stroke-linejoin:miter;stroke:rgb(0%,0%,0%);stroke-opacity:1;stroke-miterlimit:10;" d="M 83.350222 21.305464 L 145.404667 21.305464 " transform="matrix(3.515625,0,0,-3.517857,85.120312,528.160518)"/>
<path style="fill:none;stroke-width:0.31879;stroke-linecap:round;stroke-linejoin:round;stroke:rgb(0%,0%,0%);stroke-opacity:1;stroke-miterlimit:10;" d="M -1.196478 1.592547 C -1.095367 0.995149 -0.00203333 0.100161 0.299078 -0.000885533 C -0.00203333 -0.0986013 -1.095367 -0.99803 -1.196478 -1.595429 " transform="matrix(3.515625,0,0,-3.517857,596.315742,453.207822)"/>
<path style=" stroke:none;fill-rule:nonzero;fill:rgb(0%,0%,0%);fill-opacity:1;" d="M 592.976562 501.53125 C 592.976562 502.792969 592.863281 503.179688 590.171875 503.179688 L 589.347656 503.179688 L 589.347656 504.277344 L 609.5625 504.277344 L 611.046875 495.207031 L 610.167969 495.207031 C 609.289062 500.648438 608.464844 503.179688 602.476562 503.179688 L 597.808594 503.179688 C 596.160156 503.179688 596.105469 502.957031 596.105469 501.804688 L 596.105469 492.40625 L 599.238281 492.40625 C 602.644531 492.40625 603.027344 493.558594 603.027344 496.527344 L 603.90625 496.527344 L 603.90625 487.238281 L 603.027344 487.238281 C 603.027344 490.261719 602.644531 491.359375 599.238281 491.359375 L 596.105469 491.359375 L 596.105469 482.894531 C 596.105469 481.742188 596.160156 481.523438 597.808594 481.523438 L 602.3125 481.523438 C 607.695312 481.523438 608.628906 483.445312 609.179688 488.335938 L 610.058594 488.335938 L 609.070312 480.421875 L 589.347656 480.421875 L 589.347656 481.523438 L 590.171875 481.523438 C 592.863281 481.523438 592.976562 481.90625 592.976562 483.171875 Z M 592.976562 501.53125 "/>
<path style=" stroke:none;fill-rule:nonzero;fill:rgb(0%,0%,0%);fill-opacity:1;" d="M 618.074219 491.085938 L 618.074219 488.777344 L 613.023438 489.160156 L 613.023438 490.261719 C 615.496094 490.261719 615.769531 490.480469 615.769531 492.019531 L 615.769531 508.398438 C 615.769531 509.996094 615.382812 509.996094 613.023438 509.996094 L 613.023438 511.09375 C 614.230469 511.039062 616.042969 510.984375 616.921875 510.984375 C 617.910156 510.984375 619.667969 511.039062 620.878906 511.09375 L 620.878906 509.996094 C 618.570312 509.996094 618.1875 509.996094 618.1875 508.398438 L 618.1875 502.1875 C 618.351562 502.792969 619.832031 504.664062 622.46875 504.664062 C 626.644531 504.664062 630.269531 501.199219 630.269531 496.691406 C 630.269531 492.238281 626.921875 488.777344 622.964844 488.777344 C 620.21875 488.777344 618.734375 490.316406 618.074219 491.085938 Z M 618.1875 500.265625 L 618.1875 492.460938 C 619.175781 490.644531 620.878906 489.65625 622.691406 489.65625 C 625.273438 489.65625 627.359375 492.734375 627.359375 496.691406 C 627.359375 500.925781 624.941406 503.894531 622.359375 503.894531 C 620.933594 503.894531 619.613281 503.179688 618.679688 501.75 C 618.1875 501.035156 618.1875 500.980469 618.1875 500.265625 Z M 618.1875 500.265625 "/>
<path style=" stroke:none;fill-rule:nonzero;fill:rgb(0%,0%,0%);fill-opacity:1;" d="M 648.953125 496.746094 C 648.953125 492.296875 645.492188 488.558594 641.261719 488.558594 C 636.867188 488.558594 633.460938 492.40625 633.460938 496.746094 C 633.460938 501.308594 637.089844 504.664062 641.207031 504.664062 C 645.4375 504.664062 648.953125 501.199219 648.953125 496.746094 Z M 641.261719 503.78125 C 639.726562 503.78125 638.1875 503.070312 637.253906 501.417969 C 636.375 499.878906 636.375 497.738281 636.375 496.472656 C 636.375 495.097656 636.375 493.230469 637.199219 491.691406 C 638.132812 490.097656 639.78125 489.328125 641.207031 489.328125 C 642.746094 489.328125 644.230469 490.097656 645.164062 491.636719 C 646.097656 493.121094 646.097656 495.152344 646.097656 496.472656 C 646.097656 497.738281 646.097656 499.660156 645.328125 501.199219 C 644.503906 502.792969 642.964844 503.78125 641.261719 503.78125 Z M 641.261719 503.78125 "/>
<path style=" stroke:none;fill-rule:nonzero;fill:rgb(0%,0%,0%);fill-opacity:1;" d="M 655.085938 496.636719 C 655.085938 490.921875 657.945312 489.4375 659.8125 489.4375 C 660.140625 489.4375 662.339844 489.492188 663.546875 490.757812 C 662.117188 490.867188 661.898438 491.910156 661.898438 492.351562 C 661.898438 493.285156 662.558594 493.945312 663.492188 493.945312 C 664.425781 493.945312 665.140625 493.394531 665.140625 492.296875 C 665.140625 489.929688 662.449219 488.558594 659.757812 488.558594 C 655.363281 488.558594 652.175781 492.351562 652.175781 496.691406 C 652.175781 501.199219 655.636719 504.664062 659.703125 504.664062 C 664.371094 504.664062 665.523438 500.429688 665.523438 500.101562 C 665.523438 499.769531 665.140625 499.769531 665.03125 499.769531 C 664.753906 499.769531 664.644531 499.878906 664.589844 500.101562 C 663.601562 503.34375 661.292969 503.78125 660.03125 503.78125 C 658.164062 503.78125 655.085938 502.300781 655.085938 496.636719 Z M 655.085938 496.636719 "/>
<path style=" stroke:none;fill-rule:nonzero;fill:rgb(0%,0%,0%);fill-opacity:1;" d="M 669.398438 501.640625 C 669.398438 503.179688 669.011719 503.179688 666.648438 503.179688 L 666.648438 504.277344 C 667.914062 504.222656 669.671875 504.167969 670.660156 504.167969 C 671.539062 504.167969 673.351562 504.222656 674.558594 504.277344 L 674.558594 503.179688 C 672.199219 503.179688 671.8125 503.179688 671.8125 501.640625 L 671.8125 495.152344 C 671.8125 491.527344 674.339844 489.546875 676.539062 489.546875 C 678.789062 489.546875 679.175781 491.414062 679.175781 493.449219 L 679.175781 501.640625 C 679.175781 503.179688 678.789062 503.179688 676.429688 503.179688 L 676.429688 504.277344 C 677.636719 504.222656 679.449219 504.167969 680.382812 504.167969 C 681.261719 504.167969 683.128906 504.222656 684.28125 504.277344 L 684.28125 503.179688 C 682.46875 503.179688 681.589844 503.179688 681.589844 502.132812 L 681.589844 495.429688 C 681.589844 492.40625 681.589844 491.359375 680.492188 490.097656 C 680 489.492188 678.84375 488.777344 676.8125 488.777344 C 673.847656 488.777344 672.308594 490.867188 671.703125 492.238281 L 671.703125 479.925781 L 666.648438 480.3125 L 666.648438 481.410156 C 669.121094 481.410156 669.398438 481.632812 669.398438 483.390625 Z M 669.398438 501.640625 "/>
<path style=" stroke:none;fill-rule:nonzero;fill:rgb(0%,0%,0%);fill-opacity:1;" d="M 692.316406 497.460938 C 693.085938 497.625 695.941406 498.175781 695.941406 500.703125 C 695.941406 502.464844 694.734375 503.894531 691.988281 503.894531 C 689.019531 503.894531 687.757812 501.914062 687.097656 498.890625 C 686.988281 498.453125 686.988281 498.339844 686.605469 498.339844 C 686.164062 498.339844 686.164062 498.5625 686.164062 499.164062 L 686.164062 503.839844 C 686.164062 504.441406 686.164062 504.664062 686.550781 504.664062 C 686.714844 504.664062 686.769531 504.609375 687.429688 503.949219 C 687.484375 503.894531 687.484375 503.839844 688.140625 503.179688 C 689.679688 504.609375 691.273438 504.664062 691.988281 504.664062 C 695.996094 504.664062 697.644531 502.300781 697.644531 499.769531 C 697.644531 497.957031 696.601562 496.855469 696.164062 496.472656 C 695.007812 495.316406 693.636719 495.042969 692.152344 494.769531 C 690.175781 494.382812 687.867188 493.945312 687.867188 491.910156 C 687.867188 490.644531 688.746094 489.21875 691.769531 489.21875 C 695.613281 489.21875 695.832031 492.40625 695.886719 493.449219 C 695.886719 493.777344 696.21875 493.777344 696.273438 493.777344 C 696.765625 493.777344 696.765625 493.613281 696.765625 492.953125 L 696.765625 489.382812 C 696.765625 488.832031 696.765625 488.558594 696.382812 488.558594 C 696.21875 488.558594 696.105469 488.558594 695.667969 488.996094 C 695.558594 489.105469 695.226562 489.4375 695.0625 489.546875 C 693.746094 488.558594 692.316406 488.558594 691.769531 488.558594 C 687.484375 488.558594 686.164062 490.921875 686.164062 492.898438 C 686.164062 494.109375 686.714844 495.097656 687.648438 495.867188 C 688.800781 496.746094 689.789062 496.96875 692.316406 497.460938 Z M 692.316406 497.460938 "/>
<path style=" stroke:none;fill-rule:nonzero;fill:rgb(0%,0%,0%);fill-opacity:1;" d="M 107.910156 41.296875 C 107.910156 42.558594 107.800781 42.945312 105.109375 42.945312 L 104.285156 42.945312 L 104.285156 44.042969 L 124.5 44.042969 L 125.984375 34.972656 L 125.101562 34.972656 C 124.226562 40.414062 123.402344 42.945312 117.414062 42.945312 L 112.742188 42.945312 C 111.097656 42.945312 111.039062 42.722656 111.039062 41.570312 L 111.039062 32.171875 L 114.171875 32.171875 C 117.578125 32.171875 117.960938 33.324219 117.960938 36.292969 L 118.839844 36.292969 L 118.839844 27.003906 L 117.960938 27.003906 C 117.960938 30.027344 117.578125 31.125 114.171875 31.125 L 111.039062 31.125 L 111.039062 22.660156 C 111.039062 21.507812 111.097656 21.289062 112.742188 21.289062 L 117.25 21.289062 C 122.632812 21.289062 123.566406 23.210938 124.113281 28.101562 L 124.992188 28.101562 L 124.003906 20.1875 L 104.285156 20.1875 L 104.285156 21.289062 L 105.109375 21.289062 C 107.800781 21.289062 107.910156 21.671875 107.910156 22.9375 Z M 107.910156 41.296875 "/>
<path style=" stroke:none;fill-rule:nonzero;fill:rgb(0%,0%,0%);fill-opacity:1;" d="M 132.847656 32.390625 L 132.847656 28.542969 L 127.957031 28.929688 L 127.957031 30.027344 C 130.429688 30.027344 130.703125 30.246094 130.703125 32.007812 L 130.703125 41.40625 C 130.703125 42.945312 130.320312 42.945312 127.957031 42.945312 L 127.957031 44.042969 C 129.332031 43.988281 130.980469 43.933594 131.96875 43.933594 C 133.339844 43.933594 134.988281 43.933594 136.417969 44.042969 L 136.417969 42.945312 L 135.648438 42.945312 C 133.066406 42.945312 133.011719 42.558594 133.011719 41.296875 L 133.011719 35.910156 C 133.011719 32.445312 134.496094 29.3125 137.132812 29.3125 C 137.351562 29.3125 137.460938 29.3125 137.515625 29.367188 C 137.40625 29.367188 136.691406 29.808594 136.691406 30.742188 C 136.691406 31.675781 137.460938 32.226562 138.230469 32.226562 C 138.832031 32.226562 139.710938 31.785156 139.710938 30.6875 C 139.710938 29.585938 138.613281 28.542969 137.132812 28.542969 C 134.550781 28.542969 133.285156 30.90625 132.847656 32.390625 Z M 132.847656 32.390625 "/>
<path style=" stroke:none;fill-rule:nonzero;fill:rgb(0%,0%,0%);fill-opacity:1;" d="M 146.566406 32.390625 L 146.566406 28.542969 L 141.675781 28.929688 L 141.675781 30.027344 C 144.148438 30.027344 144.421875 30.246094 144.421875 32.007812 L 144.421875 41.40625 C 144.421875 42.945312 144.039062 42.945312 141.675781 42.945312 L 141.675781 44.042969 C 143.050781 43.988281 144.699219 43.933594 145.6875 43.933594 C 147.058594 43.933594 148.707031 43.933594 150.136719 44.042969 L 150.136719 42.945312 L 149.367188 42.945312 C 146.785156 42.945312 146.730469 42.558594 146.730469 41.296875 L 146.730469 35.910156 C 146.730469 32.445312 148.214844 29.3125 150.851562 29.3125 C 151.070312 29.3125 151.179688 29.3125 151.234375 29.367188 C 151.125 29.367188 150.410156 29.808594 150.410156 30.742188 C 150.410156 31.675781 151.179688 32.226562 151.949219 32.226562 C 152.554688 32.226562 153.433594 31.785156 153.433594 30.6875 C 153.433594 29.585938 152.332031 28.542969 150.851562 28.542969 C 148.269531 28.542969 147.003906 30.90625 146.566406 32.390625 Z M 146.566406 32.390625 "/>
<path style=" stroke:none;fill-rule:nonzero;fill:rgb(0%,0%,0%);fill-opacity:1;" d="M 170.886719 36.511719 C 170.886719 32.0625 167.425781 28.324219 163.195312 28.324219 C 158.800781 28.324219 155.394531 32.171875 155.394531 36.511719 C 155.394531 41.074219 159.019531 44.429688 163.140625 44.429688 C 167.371094 44.429688 170.886719 40.964844 170.886719 36.511719 Z M 163.195312 43.550781 C 161.65625 43.550781 160.121094 42.835938 159.1875 41.183594 C 158.308594 39.644531 158.308594 37.503906 158.308594 36.238281 C 158.308594 34.863281 158.308594 32.996094 159.132812 31.457031 C 160.066406 29.863281 161.714844 29.09375 163.140625 29.09375 C 164.679688 29.09375 166.164062 29.863281 167.097656 31.402344 C 168.03125 32.886719 168.03125 34.917969 168.03125 36.238281 C 168.03125 37.503906 168.03125 39.425781 167.261719 40.964844 C 166.4375 42.558594 164.898438 43.550781 163.195312 43.550781 Z M 163.195312 43.550781 "/>
<path style=" stroke:none;fill-rule:nonzero;fill:rgb(0%,0%,0%);fill-opacity:1;" d="M 177.796875 32.390625 L 177.796875 28.542969 L 172.910156 28.929688 L 172.910156 30.027344 C 175.378906 30.027344 175.65625 30.246094 175.65625 32.007812 L 175.65625 41.40625 C 175.65625 42.945312 175.269531 42.945312 172.910156 42.945312 L 172.910156 44.042969 C 174.28125 43.988281 175.929688 43.933594 176.917969 43.933594 C 178.292969 43.933594 179.941406 43.933594 181.367188 44.042969 L 181.367188 42.945312 L 180.597656 42.945312 C 178.015625 42.945312 177.960938 42.558594 177.960938 41.296875 L 177.960938 35.910156 C 177.960938 32.445312 179.445312 29.3125 182.082031 29.3125 C 182.300781 29.3125 182.410156 29.3125 182.464844 29.367188 C 182.355469 29.367188 181.640625 29.808594 181.640625 30.742188 C 181.640625 31.675781 182.410156 32.226562 183.179688 32.226562 C 183.785156 32.226562 184.664062 31.785156 184.664062 30.6875 C 184.664062 29.585938 183.566406 28.542969 182.082031 28.542969 C 179.5 28.542969 178.238281 30.90625 177.796875 32.390625 Z M 177.796875 32.390625 "/>
<path style="fill-rule:nonzero;fill:rgb(100%,100%,100%);fill-opacity:1;stroke-width:0.3985;stroke-linecap:butt;stroke-linejoin:miter;stroke:rgb(0%,0%,0%);stroke-opacity:1;stroke-miterlimit:10;" d="M 107.455778 114.347501 L 172.058 114.347501 L 172.058 142.906036 L 107.455778 142.906036 Z M 107.455778 114.347501 " transform="matrix(3.515625,0,0,-3.517857,85.120312,528.160518)"/>
<path style="fill:none;stroke-width:0.79701;stroke-linecap:butt;stroke-linejoin:miter;stroke:rgb(100%,0%,0%);stroke-opacity:1;stroke-miterlimit:10;" d="M 0.00144444 0.0020901 L 17.009222 0.0020901 " transform="matrix(3.515625,0,0,-3.517857,474.795703,54.065946)"/>
<path style=" stroke:none;fill-rule:nonzero;fill:rgb(0%,0%,0%);fill-opacity:1;" d="M 566.339844 39.667969 L 544.917969 39.667969 L 544.257812 47.582031 L 545.136719 47.582031 C 545.632812 41.921875 546.125 40.765625 551.453125 40.765625 C 552.058594 40.765625 552.992188 40.765625 553.324219 40.820312 C 554.089844 40.988281 554.089844 41.371094 554.089844 42.140625 L 554.089844 60.664062 C 554.089844 61.820312 554.089844 62.3125 550.410156 62.3125 L 548.984375 62.3125 L 548.984375 63.414062 C 550.410156 63.304688 553.980469 63.304688 555.628906 63.304688 C 557.222656 63.304688 560.847656 63.304688 562.277344 63.414062 L 562.277344 62.3125 L 560.847656 62.3125 C 557.167969 62.3125 557.167969 61.820312 557.167969 60.664062 L 557.167969 42.140625 C 557.167969 41.480469 557.167969 40.988281 557.828125 40.820312 C 558.210938 40.765625 559.144531 40.765625 559.804688 40.765625 C 565.132812 40.765625 565.628906 41.921875 566.121094 47.582031 L 567 47.582031 Z M 566.339844 39.667969 "/>
<path style=" stroke:none;fill-rule:nonzero;fill:rgb(0%,0%,0%);fill-opacity:1;" d="M 571.261719 51.761719 L 571.261719 47.914062 L 566.371094 48.296875 L 566.371094 49.394531 C 568.84375 49.394531 569.117188 49.617188 569.117188 51.375 L 569.117188 60.773438 C 569.117188 62.3125 568.734375 62.3125 566.371094 62.3125 L 566.371094 63.414062 C 567.746094 63.359375 569.394531 63.304688 570.382812 63.304688 C 571.753906 63.304688 573.402344 63.304688 574.832031 63.414062 L 574.832031 62.3125 L 574.0625 62.3125 C 571.480469 62.3125 571.425781 61.929688 571.425781 60.664062 L 571.425781 55.277344 C 571.425781 51.816406 572.910156 48.683594 575.546875 48.683594 C 575.765625 48.683594 575.875 48.683594 575.929688 48.738281 C 575.820312 48.738281 575.105469 49.175781 575.105469 50.109375 C 575.105469 51.046875 575.875 51.59375 576.644531 51.59375 C 577.25 51.59375 578.128906 51.15625 578.128906 50.054688 C 578.128906 48.957031 577.027344 47.914062 575.546875 47.914062 C 572.964844 47.914062 571.699219 50.277344 571.261719 51.761719 Z M 571.261719 51.761719 "/>
<path style=" stroke:none;fill-rule:nonzero;fill:rgb(0%,0%,0%);fill-opacity:1;" d="M 590.746094 60.773438 C 590.914062 62.148438 591.847656 63.632812 593.496094 63.632812 C 594.261719 63.632812 596.40625 63.136719 596.40625 60.28125 L 596.40625 58.300781 L 595.527344 58.300781 L 595.527344 60.28125 C 595.527344 62.3125 594.648438 62.535156 594.261719 62.535156 C 593.109375 62.535156 592.945312 60.9375 592.945312 60.773438 L 592.945312 53.792969 C 592.945312 52.308594 592.945312 50.933594 591.683594 49.617188 C 590.308594 48.242188 588.550781 47.691406 586.902344 47.691406 C 583.992188 47.691406 581.574219 49.339844 581.574219 51.648438 C 581.574219 52.695312 582.289062 53.300781 583.222656 53.300781 C 584.210938 53.300781 584.816406 52.585938 584.816406 51.703125 C 584.816406 51.265625 584.652344 50.109375 583.003906 50.109375 C 583.992188 48.847656 585.695312 48.460938 586.792969 48.460938 C 588.550781 48.460938 590.527344 49.835938 590.527344 52.96875 L 590.527344 54.234375 C 588.714844 54.34375 586.296875 54.453125 584.101562 55.496094 C 581.464844 56.707031 580.585938 58.519531 580.585938 60.058594 C 580.585938 62.917969 583.992188 63.796875 586.1875 63.796875 C 588.496094 63.796875 590.089844 62.367188 590.746094 60.773438 Z M 590.527344 55.003906 L 590.527344 58.519531 C 590.527344 61.820312 588 63.027344 586.410156 63.027344 C 584.707031 63.027344 583.277344 61.820312 583.277344 60.058594 C 583.277344 58.136719 584.761719 55.222656 590.527344 55.003906 Z M 590.527344 55.003906 "/>
<path style=" stroke:none;fill-rule:nonzero;fill:rgb(0%,0%,0%);fill-opacity:1;" d="M 602.820312 47.914062 L 597.933594 48.296875 L 597.933594 49.394531 C 600.183594 49.394531 600.515625 49.617188 600.515625 51.320312 L 600.515625 60.773438 C 600.515625 62.3125 600.128906 62.3125 597.769531 62.3125 L 597.769531 63.414062 C 598.867188 63.359375 600.789062 63.304688 601.613281 63.304688 C 602.875 63.304688 604.085938 63.359375 605.292969 63.414062 L 605.292969 62.3125 C 602.933594 62.3125 602.820312 62.148438 602.820312 60.773438 Z M 602.933594 41.8125 C 602.933594 40.710938 602.109375 39.941406 601.117188 39.941406 C 600.019531 39.941406 599.25 40.875 599.25 41.8125 C 599.25 42.746094 600.019531 43.679688 601.117188 43.679688 C 602.109375 43.679688 602.933594 42.910156 602.933594 41.8125 Z M 602.933594 41.8125 "/>
<path style=" stroke:none;fill-rule:nonzero;fill:rgb(0%,0%,0%);fill-opacity:1;" d="M 610.191406 51.375 L 610.191406 60.773438 C 610.191406 62.3125 609.804688 62.3125 607.441406 62.3125 L 607.441406 63.414062 C 608.707031 63.359375 610.464844 63.304688 611.453125 63.304688 C 612.332031 63.304688 614.144531 63.359375 615.351562 63.414062 L 615.351562 62.3125 C 612.992188 62.3125 612.605469 62.3125 612.605469 60.773438 L 612.605469 54.289062 C 612.605469 50.660156 615.132812 48.683594 617.332031 48.683594 C 619.582031 48.683594 619.96875 50.550781 619.96875 52.585938 L 619.96875 60.773438 C 619.96875 62.3125 619.582031 62.3125 617.222656 62.3125 L 617.222656 63.414062 C 618.429688 63.359375 620.242188 63.304688 621.175781 63.304688 C 622.054688 63.304688 623.921875 63.359375 625.078125 63.414062 L 625.078125 62.3125 C 623.261719 62.3125 622.382812 62.3125 622.382812 61.269531 L 622.382812 54.5625 C 622.382812 51.539062 622.382812 50.496094 621.285156 49.230469 C 620.792969 48.625 619.636719 47.914062 617.605469 47.914062 C 615.023438 47.914062 613.375 49.394531 612.386719 51.59375 L 612.386719 47.914062 L 607.441406 48.296875 L 607.441406 49.394531 C 609.914062 49.394531 610.191406 49.617188 610.191406 51.375 Z M 610.191406 51.375 "/>
<path style=" stroke:none;fill-rule:nonzero;fill:rgb(0%,0%,0%);fill-opacity:1;" d="M 632.011719 47.914062 L 627.121094 48.296875 L 627.121094 49.394531 C 629.375 49.394531 629.703125 49.617188 629.703125 51.320312 L 629.703125 60.773438 C 629.703125 62.3125 629.320312 62.3125 626.957031 62.3125 L 626.957031 63.414062 C 628.054688 63.359375 629.980469 63.304688 630.804688 63.304688 C 632.066406 63.304688 633.273438 63.359375 634.484375 63.414062 L 634.484375 62.3125 C 632.121094 62.3125 632.011719 62.148438 632.011719 60.773438 Z M 632.121094 41.8125 C 632.121094 40.710938 631.296875 39.941406 630.308594 39.941406 C 629.210938 39.941406 628.441406 40.875 628.441406 41.8125 C 628.441406 42.746094 629.210938 43.679688 630.308594 43.679688 C 631.296875 43.679688 632.121094 42.910156 632.121094 41.8125 Z M 632.121094 41.8125 "/>
<path style=" stroke:none;fill-rule:nonzero;fill:rgb(0%,0%,0%);fill-opacity:1;" d="M 639.378906 51.375 L 639.378906 60.773438 C 639.378906 62.3125 638.996094 62.3125 636.632812 62.3125 L 636.632812 63.414062 C 637.894531 63.359375 639.652344 63.304688 640.644531 63.304688 C 641.523438 63.304688 643.335938 63.359375 644.542969 63.414062 L 644.542969 62.3125 C 642.179688 62.3125 641.796875 62.3125 641.796875 60.773438 L 641.796875 54.289062 C 641.796875 50.660156 644.324219 48.683594 646.519531 48.683594 C 648.773438 48.683594 649.15625 50.550781 649.15625 52.585938 L 649.15625 60.773438 C 649.15625 62.3125 648.773438 62.3125 646.410156 62.3125 L 646.410156 63.414062 C 647.621094 63.359375 649.433594 63.304688 650.367188 63.304688 C 651.246094 63.304688 653.113281 63.359375 654.265625 63.414062 L 654.265625 62.3125 C 652.453125 62.3125 651.574219 62.3125 651.574219 61.269531 L 651.574219 54.5625 C 651.574219 51.539062 651.574219 50.496094 650.476562 49.230469 C 649.980469 48.625 648.828125 47.914062 646.796875 47.914062 C 644.214844 47.914062 642.566406 49.394531 641.578125 51.59375 L 641.578125 47.914062 L 636.632812 48.296875 L 636.632812 49.394531 C 639.105469 49.394531 639.378906 49.617188 639.378906 51.375 Z M 639.378906 51.375 "/>
<path style=" stroke:none;fill-rule:nonzero;fill:rgb(0%,0%,0%);fill-opacity:1;" d="M 662.792969 57.367188 C 659.71875 57.367188 659.71875 53.847656 659.71875 53.078125 C 659.71875 52.144531 659.773438 50.992188 660.265625 50.109375 C 660.542969 49.726562 661.367188 48.738281 662.792969 48.738281 C 665.816406 48.738281 665.816406 52.199219 665.816406 53.023438 C 665.816406 53.957031 665.816406 55.113281 665.265625 55.992188 C 664.992188 56.378906 664.167969 57.367188 662.792969 57.367188 Z M 658.730469 58.742188 C 658.730469 58.628906 658.730469 57.804688 659.277344 57.089844 C 660.652344 58.082031 662.136719 58.191406 662.792969 58.191406 C 666.035156 58.191406 668.453125 55.773438 668.453125 53.078125 C 668.453125 51.761719 667.902344 50.496094 667.023438 49.671875 C 668.289062 48.460938 669.550781 48.296875 670.15625 48.296875 C 670.265625 48.296875 670.429688 48.296875 670.539062 48.351562 C 670.15625 48.460938 669.933594 48.847656 669.933594 49.285156 C 669.933594 49.890625 670.429688 50.277344 670.980469 50.277344 C 671.308594 50.277344 671.96875 50.054688 671.96875 49.230469 C 671.96875 48.625 671.582031 47.527344 670.210938 47.527344 C 669.496094 47.527344 667.957031 47.746094 666.476562 49.175781 C 664.992188 48.023438 663.5625 47.914062 662.792969 47.914062 C 659.5 47.914062 657.082031 50.332031 657.082031 53.023438 C 657.082031 54.5625 657.851562 55.882812 658.730469 56.652344 C 658.289062 57.148438 657.628906 58.300781 657.628906 59.566406 C 657.628906 60.664062 658.125 61.984375 659.222656 62.699219 C 657.082031 63.246094 655.984375 64.785156 655.984375 66.160156 C 655.984375 68.691406 659.445312 70.613281 663.726562 70.613281 C 667.847656 70.613281 671.472656 68.855469 671.472656 66.105469 C 671.472656 64.898438 671.035156 63.082031 669.222656 62.09375 C 667.355469 61.160156 665.320312 61.160156 663.179688 61.160156 C 662.300781 61.160156 660.816406 61.160156 660.542969 61.105469 C 659.445312 60.9375 658.730469 59.894531 658.730469 58.742188 Z M 663.78125 69.84375 C 660.210938 69.84375 657.796875 68.03125 657.796875 66.160156 C 657.796875 64.566406 659.113281 63.246094 660.652344 63.191406 L 662.738281 63.191406 C 665.761719 63.191406 669.660156 63.191406 669.660156 66.160156 C 669.660156 68.085938 667.1875 69.84375 663.78125 69.84375 Z M 663.78125 69.84375 "/>
<path style="fill:none;stroke-width:0.79701;stroke-linecap:butt;stroke-linejoin:miter;stroke:rgb(0%,100%,0%);stroke-opacity:1;stroke-miterlimit:10;" d="M 0.00144444 0.000225888 L 17.009222 0.000225888 " transform="matrix(3.515625,0,0,-3.517857,474.795703,97.289857)"/>
<path style=" stroke:none;fill-rule:nonzero;fill:rgb(0%,0%,0%);fill-opacity:1;" d="M 575.050781 82.890625 L 553.625 82.890625 L 552.96875 90.804688 L 553.847656 90.804688 C 554.339844 85.144531 554.835938 83.992188 560.164062 83.992188 C 560.765625 83.992188 561.699219 83.992188 562.03125 84.046875 C 562.800781 84.210938 562.800781 84.59375 562.800781 85.363281 L 562.800781 103.886719 C 562.800781 105.042969 562.800781 105.539062 559.121094 105.539062 L 557.691406 105.539062 L 557.691406 106.636719 C 559.121094 106.527344 562.691406 106.527344 564.335938 106.527344 C 565.929688 106.527344 569.554688 106.527344 570.984375 106.636719 L 570.984375 105.539062 L 569.554688 105.539062 C 565.875 105.539062 565.875 105.042969 565.875 103.886719 L 565.875 85.363281 C 565.875 84.707031 565.875 84.210938 566.535156 84.046875 C 566.917969 83.992188 567.851562 83.992188 568.511719 83.992188 C 573.839844 83.992188 574.335938 85.144531 574.828125 90.804688 L 575.707031 90.804688 Z M 575.050781 82.890625 "/>
<path style=" stroke:none;fill-rule:nonzero;fill:rgb(0%,0%,0%);fill-opacity:1;" d="M 577.992188 97.789062 C 578.210938 92.566406 581.175781 91.6875 582.386719 91.6875 C 585.957031 91.6875 586.339844 96.414062 586.339844 97.789062 Z M 577.992188 98.558594 L 587.769531 98.558594 C 588.539062 98.558594 588.648438 98.558594 588.648438 97.789062 C 588.648438 94.324219 586.726562 90.917969 582.386719 90.917969 C 578.320312 90.917969 575.082031 94.542969 575.082031 98.941406 C 575.082031 103.613281 578.761719 107.023438 582.769531 107.023438 C 587.054688 107.023438 588.648438 103.117188 588.648438 102.460938 C 588.648438 102.128906 588.375 102.019531 588.152344 102.019531 C 587.878906 102.019531 587.769531 102.238281 587.714844 102.515625 C 586.507812 106.140625 583.320312 106.140625 582.992188 106.140625 C 581.234375 106.140625 579.859375 105.097656 579.035156 103.777344 C 577.992188 102.128906 577.992188 99.820312 577.992188 98.558594 Z M 577.992188 98.558594 "/>
<path style=" stroke:none;fill-rule:nonzero;fill:rgb(0%,0%,0%);fill-opacity:1;" d="M 596.960938 99.820312 C 597.730469 99.984375 600.585938 100.535156 600.585938 103.0625 C 600.585938 104.824219 599.378906 106.253906 596.632812 106.253906 C 593.667969 106.253906 592.402344 104.273438 591.742188 101.25 C 591.632812 100.808594 591.632812 100.699219 591.25 100.699219 C 590.808594 100.699219 590.808594 100.921875 590.808594 101.523438 L 590.808594 106.195312 C 590.808594 106.800781 590.808594 107.023438 591.195312 107.023438 C 591.359375 107.023438 591.414062 106.964844 592.074219 106.308594 C 592.128906 106.253906 592.128906 106.195312 592.789062 105.539062 C 594.324219 106.964844 595.917969 107.023438 596.632812 107.023438 C 600.644531 107.023438 602.289062 104.65625 602.289062 102.128906 C 602.289062 100.316406 601.246094 99.214844 600.808594 98.832031 C 599.652344 97.675781 598.28125 97.402344 596.796875 97.128906 C 594.820312 96.742188 592.511719 96.304688 592.511719 94.269531 C 592.511719 93.003906 593.390625 91.574219 596.414062 91.574219 C 600.257812 91.574219 600.476562 94.765625 600.53125 95.808594 C 600.53125 96.136719 600.863281 96.136719 600.917969 96.136719 C 601.410156 96.136719 601.410156 95.972656 601.410156 95.3125 L 601.410156 91.742188 C 601.410156 91.191406 601.410156 90.917969 601.027344 90.917969 C 600.863281 90.917969 600.753906 90.917969 600.3125 91.355469 C 600.203125 91.464844 599.875 91.796875 599.707031 91.90625 C 598.390625 90.917969 596.960938 90.917969 596.414062 90.917969 C 592.128906 90.917969 590.808594 93.28125 590.808594 95.257812 C 590.808594 96.46875 591.359375 97.457031 592.292969 98.226562 C 593.445312 99.105469 594.433594 99.328125 596.960938 99.820312 Z M 596.960938 99.820312 "/>
<path style=" stroke:none;fill-rule:nonzero;fill:rgb(0%,0%,0%);fill-opacity:1;" d="M 609.511719 92.621094 L 614.566406 92.621094 L 614.566406 91.519531 L 609.511719 91.519531 L 609.511719 85.089844 L 608.632812 85.089844 C 608.632812 87.949219 607.589844 91.6875 604.128906 91.851562 L 604.128906 92.621094 L 607.09375 92.621094 L 607.09375 102.292969 C 607.09375 106.582031 610.390625 107.023438 611.65625 107.023438 C 614.125 107.023438 615.117188 104.546875 615.117188 102.292969 L 615.117188 100.316406 L 614.238281 100.316406 L 614.238281 102.238281 C 614.238281 104.824219 613.191406 106.140625 611.875 106.140625 C 609.511719 106.140625 609.511719 102.953125 609.511719 102.347656 Z M 609.511719 92.621094 "/>
<path style=" stroke:none;fill-rule:nonzero;fill:rgb(0%,0%,0%);fill-opacity:1;" d="M 623.296875 91.136719 L 618.410156 91.519531 L 618.410156 92.621094 C 620.660156 92.621094 620.992188 92.839844 620.992188 94.542969 L 620.992188 104 C 620.992188 105.539062 620.605469 105.539062 618.246094 105.539062 L 618.246094 106.636719 C 619.34375 106.582031 621.265625 106.527344 622.089844 106.527344 C 623.351562 106.527344 624.5625 106.582031 625.769531 106.636719 L 625.769531 105.539062 C 623.410156 105.539062 623.296875 105.371094 623.296875 104 Z M 623.410156 85.035156 C 623.410156 83.9375 622.585938 83.167969 621.59375 83.167969 C 620.496094 83.167969 619.726562 84.101562 619.726562 85.035156 C 619.726562 85.96875 620.496094 86.902344 621.59375 86.902344 C 622.585938 86.902344 623.410156 86.132812 623.410156 85.035156 Z M 623.410156 85.035156 "/>
<path style=" stroke:none;fill-rule:nonzero;fill:rgb(0%,0%,0%);fill-opacity:1;" d="M 630.667969 94.597656 L 630.667969 104 C 630.667969 105.539062 630.28125 105.539062 627.917969 105.539062 L 627.917969 106.636719 C 629.183594 106.582031 630.941406 106.527344 631.929688 106.527344 C 632.808594 106.527344 634.621094 106.582031 635.828125 106.636719 L 635.828125 105.539062 C 633.46875 105.539062 633.082031 105.539062 633.082031 104 L 633.082031 97.511719 C 633.082031 93.882812 635.609375 91.90625 637.808594 91.90625 C 640.058594 91.90625 640.445312 93.773438 640.445312 95.808594 L 640.445312 104 C 640.445312 105.539062 640.058594 105.539062 637.699219 105.539062 L 637.699219 106.636719 C 638.90625 106.582031 640.71875 106.527344 641.652344 106.527344 C 642.53125 106.527344 644.398438 106.582031 645.554688 106.636719 L 645.554688 105.539062 C 643.738281 105.539062 642.859375 105.539062 642.859375 104.492188 L 642.859375 97.789062 C 642.859375 94.765625 642.859375 93.71875 641.761719 92.457031 C 641.269531 91.851562 640.113281 91.136719 638.082031 91.136719 C 635.5 91.136719 633.851562 92.621094 632.863281 94.820312 L 632.863281 91.136719 L 627.917969 91.519531 L 627.917969 92.621094 C 630.390625 92.621094 630.667969 92.839844 630.667969 94.597656 Z M 630.667969 94.597656 "/>
<path style=" stroke:none;fill-rule:nonzero;fill:rgb(0%,0%,0%);fill-opacity:1;" d="M 654.082031 100.589844 C 651.003906 100.589844 651.003906 97.074219 651.003906 96.304688 C 651.003906 95.367188 651.058594 94.214844 651.554688 93.335938 C 651.828125 92.949219 652.652344 91.960938 654.082031 91.960938 C 657.101562 91.960938 657.101562 95.421875 657.101562 96.25 C 657.101562 97.183594 657.101562 98.335938 656.554688 99.214844 C 656.277344 99.601562 655.453125 100.589844 654.082031 100.589844 Z M 650.015625 101.964844 C 650.015625 101.855469 650.015625 101.03125 650.566406 100.316406 C 651.9375 101.304688 653.421875 101.414062 654.082031 101.414062 C 657.320312 101.414062 659.738281 98.996094 659.738281 96.304688 C 659.738281 94.984375 659.191406 93.71875 658.3125 92.894531 C 659.574219 91.6875 660.835938 91.519531 661.441406 91.519531 C 661.550781 91.519531 661.714844 91.519531 661.828125 91.574219 C 661.441406 91.6875 661.222656 92.070312 661.222656 92.511719 C 661.222656 93.113281 661.714844 93.5 662.265625 93.5 C 662.59375 93.5 663.253906 93.28125 663.253906 92.457031 C 663.253906 91.851562 662.871094 90.75 661.496094 90.75 C 660.78125 90.75 659.246094 90.972656 657.761719 92.402344 C 656.277344 91.246094 654.851562 91.136719 654.082031 91.136719 C 650.785156 91.136719 648.367188 93.554688 648.367188 96.25 C 648.367188 97.789062 649.136719 99.105469 650.015625 99.875 C 649.578125 100.371094 648.917969 101.523438 648.917969 102.789062 C 648.917969 103.886719 649.410156 105.207031 650.511719 105.921875 C 648.367188 106.472656 647.269531 108.011719 647.269531 109.386719 C 647.269531 111.914062 650.730469 113.835938 655.015625 113.835938 C 659.136719 113.835938 662.761719 112.078125 662.761719 109.332031 C 662.761719 108.121094 662.320312 106.308594 660.507812 105.316406 C 658.640625 104.382812 656.609375 104.382812 654.464844 104.382812 C 653.585938 104.382812 652.105469 104.382812 651.828125 104.328125 C 650.730469 104.164062 650.015625 103.117188 650.015625 101.964844 Z M 655.070312 113.066406 C 651.5 113.066406 649.082031 111.253906 649.082031 109.386719 C 649.082031 107.792969 650.402344 106.472656 651.9375 106.417969 L 654.027344 106.417969 C 657.046875 106.417969 660.949219 106.417969 660.949219 109.386719 C 660.949219 111.308594 658.476562 113.066406 655.070312 113.066406 Z M 655.070312 113.066406 "/>
</g>
</svg>